<mxfile host="app.diagrams.net" modified="2023-07-05T04:03:24.161Z" agent="Mozilla/5.0 (Windows NT 10.0; Win64; x64) AppleWebKit/537.36 (KHTML, like Gecko) Chrome/114.0.0.0 Safari/537.36" etag="uemxKOFHrhdy3SvJT7tb" version="21.5.2" type="device" pages="4">
  <diagram id="Cby6gLE_7cEjUQlAjn1g" name="유스케이스">
    <mxGraphModel dx="1647" dy="904" grid="1" gridSize="10" guides="1" tooltips="1" connect="1" arrows="1" fold="1" page="1" pageScale="1" pageWidth="2339" pageHeight="3300" math="0" shadow="0">
      <root>
        <mxCell id="0" />
        <mxCell id="1" parent="0" />
        <mxCell id="b8Hnj6LkioQlIQqhb_6w-1" value="무신사&amp;nbsp;&lt;br&gt;홈페이지" style="shape=umlFrame;whiteSpace=wrap;html=1;pointerEvents=0;rounded=1;" vertex="1" parent="1">
          <mxGeometry x="340" y="110" width="960" height="925" as="geometry" />
        </mxCell>
        <mxCell id="b8Hnj6LkioQlIQqhb_6w-2" value="회원" style="shape=umlActor;verticalLabelPosition=bottom;verticalAlign=top;html=1;rounded=1;" vertex="1" parent="1">
          <mxGeometry x="90" y="295" width="50" height="90" as="geometry" />
        </mxCell>
        <mxCell id="b8Hnj6LkioQlIQqhb_6w-3" value="비회원" style="shape=umlActor;verticalLabelPosition=bottom;verticalAlign=top;html=1;rounded=1;" vertex="1" parent="1">
          <mxGeometry x="180" y="825" width="50" height="90" as="geometry" />
        </mxCell>
        <mxCell id="b8Hnj6LkioQlIQqhb_6w-4" value="고객센터" style="ellipse;whiteSpace=wrap;html=1;rounded=1;" vertex="1" parent="1">
          <mxGeometry x="420" y="940" width="140" height="70" as="geometry" />
        </mxCell>
        <mxCell id="b8Hnj6LkioQlIQqhb_6w-5" value="Use" style="endArrow=open;endSize=12;dashed=1;html=1;rounded=1;exitX=0.5;exitY=0.5;exitDx=0;exitDy=0;exitPerimeter=0;entryX=0;entryY=0.571;entryDx=0;entryDy=0;entryPerimeter=0;" edge="1" parent="1" source="b8Hnj6LkioQlIQqhb_6w-3" target="b8Hnj6LkioQlIQqhb_6w-4">
          <mxGeometry width="160" relative="1" as="geometry">
            <mxPoint x="250" y="705" as="sourcePoint" />
            <mxPoint x="410" y="705" as="targetPoint" />
          </mxGeometry>
        </mxCell>
        <mxCell id="b8Hnj6LkioQlIQqhb_6w-6" value="Use" style="endArrow=open;endSize=12;dashed=1;html=1;rounded=1;exitX=0.5;exitY=0.5;exitDx=0;exitDy=0;exitPerimeter=0;entryX=0;entryY=0;entryDx=0;entryDy=0;" edge="1" parent="1" source="b8Hnj6LkioQlIQqhb_6w-2" target="b8Hnj6LkioQlIQqhb_6w-4">
          <mxGeometry width="160" relative="1" as="geometry">
            <mxPoint x="270" y="510" as="sourcePoint" />
            <mxPoint x="465" y="425" as="targetPoint" />
          </mxGeometry>
        </mxCell>
        <mxCell id="b8Hnj6LkioQlIQqhb_6w-7" value="상품 조회" style="ellipse;whiteSpace=wrap;html=1;rounded=1;" vertex="1" parent="1">
          <mxGeometry x="420" y="825" width="140" height="70" as="geometry" />
        </mxCell>
        <mxCell id="b8Hnj6LkioQlIQqhb_6w-8" value="Use" style="endArrow=open;endSize=12;dashed=1;html=1;rounded=1;entryX=0;entryY=0;entryDx=0;entryDy=0;exitX=0.5;exitY=0.5;exitDx=0;exitDy=0;exitPerimeter=0;" edge="1" parent="1" source="b8Hnj6LkioQlIQqhb_6w-2" target="b8Hnj6LkioQlIQqhb_6w-7">
          <mxGeometry width="160" relative="1" as="geometry">
            <mxPoint x="250" y="445" as="sourcePoint" />
            <mxPoint x="476" y="610" as="targetPoint" />
          </mxGeometry>
        </mxCell>
        <mxCell id="b8Hnj6LkioQlIQqhb_6w-9" value="Use" style="endArrow=open;endSize=12;dashed=1;html=1;rounded=1;entryX=0;entryY=0.5;entryDx=0;entryDy=0;exitX=0.5;exitY=0.5;exitDx=0;exitDy=0;exitPerimeter=0;" edge="1" parent="1" source="b8Hnj6LkioQlIQqhb_6w-3" target="b8Hnj6LkioQlIQqhb_6w-7">
          <mxGeometry width="160" relative="1" as="geometry">
            <mxPoint x="224" y="500" as="sourcePoint" />
            <mxPoint x="430" y="645" as="targetPoint" />
          </mxGeometry>
        </mxCell>
        <mxCell id="b8Hnj6LkioQlIQqhb_6w-10" value="최근 본 상품" style="ellipse;whiteSpace=wrap;html=1;rounded=1;" vertex="1" parent="1">
          <mxGeometry x="415" y="690" width="140" height="70" as="geometry" />
        </mxCell>
        <mxCell id="b8Hnj6LkioQlIQqhb_6w-11" value="Use" style="endArrow=open;endSize=12;dashed=1;html=1;rounded=1;entryX=0;entryY=0;entryDx=0;entryDy=0;exitX=0.5;exitY=0.5;exitDx=0;exitDy=0;exitPerimeter=0;" edge="1" parent="1" source="b8Hnj6LkioQlIQqhb_6w-2" target="b8Hnj6LkioQlIQqhb_6w-10">
          <mxGeometry width="160" relative="1" as="geometry">
            <mxPoint x="290" y="340" as="sourcePoint" />
            <mxPoint x="495" y="485" as="targetPoint" />
          </mxGeometry>
        </mxCell>
        <mxCell id="b8Hnj6LkioQlIQqhb_6w-12" value="Use" style="endArrow=open;endSize=12;dashed=1;html=1;rounded=1;entryX=0;entryY=1;entryDx=0;entryDy=0;exitX=0.5;exitY=0.5;exitDx=0;exitDy=0;exitPerimeter=0;" edge="1" parent="1" source="b8Hnj6LkioQlIQqhb_6w-3" target="b8Hnj6LkioQlIQqhb_6w-10">
          <mxGeometry width="160" relative="1" as="geometry">
            <mxPoint x="190" y="535" as="sourcePoint" />
            <mxPoint x="395" y="680" as="targetPoint" />
          </mxGeometry>
        </mxCell>
        <mxCell id="b8Hnj6LkioQlIQqhb_6w-13" value="상품주문" style="ellipse;whiteSpace=wrap;html=1;rounded=1;" vertex="1" parent="1">
          <mxGeometry x="430" y="150" width="140" height="70" as="geometry" />
        </mxCell>
        <mxCell id="b8Hnj6LkioQlIQqhb_6w-14" value="인증" style="ellipse;whiteSpace=wrap;html=1;rounded=1;" vertex="1" parent="1">
          <mxGeometry x="760" y="330" width="140" height="70" as="geometry" />
        </mxCell>
        <mxCell id="b8Hnj6LkioQlIQqhb_6w-15" value="&amp;lt;&amp;lt;Include&amp;gt;&amp;gt;" style="endArrow=open;endSize=12;dashed=1;html=1;rounded=1;entryX=0;entryY=0.5;entryDx=0;entryDy=0;exitX=1.01;exitY=0.575;exitDx=0;exitDy=0;exitPerimeter=0;" edge="1" parent="1" source="b8Hnj6LkioQlIQqhb_6w-13" target="b8Hnj6LkioQlIQqhb_6w-14">
          <mxGeometry width="160" relative="1" as="geometry">
            <mxPoint x="540" y="407.5" as="sourcePoint" />
            <mxPoint x="745" y="472.5" as="targetPoint" />
          </mxGeometry>
        </mxCell>
        <mxCell id="b8Hnj6LkioQlIQqhb_6w-16" value="Use" style="endArrow=open;endSize=12;dashed=1;html=1;rounded=1;entryX=0;entryY=0.5;entryDx=0;entryDy=0;exitX=0.5;exitY=0.5;exitDx=0;exitDy=0;exitPerimeter=0;" edge="1" parent="1" source="b8Hnj6LkioQlIQqhb_6w-2" target="b8Hnj6LkioQlIQqhb_6w-13">
          <mxGeometry width="160" relative="1" as="geometry">
            <mxPoint x="270" y="375" as="sourcePoint" />
            <mxPoint x="475" y="440" as="targetPoint" />
          </mxGeometry>
        </mxCell>
        <mxCell id="b8Hnj6LkioQlIQqhb_6w-17" value="상품결제" style="ellipse;whiteSpace=wrap;html=1;rounded=1;" vertex="1" parent="1">
          <mxGeometry x="420" y="270" width="140" height="70" as="geometry" />
        </mxCell>
        <mxCell id="b8Hnj6LkioQlIQqhb_6w-18" value="&amp;lt;&amp;lt;Include&amp;gt;&amp;gt;" style="endArrow=open;endSize=12;dashed=1;html=1;rounded=1;entryX=0;entryY=0.5;entryDx=0;entryDy=0;exitX=1;exitY=0.5;exitDx=0;exitDy=0;" edge="1" parent="1" source="b8Hnj6LkioQlIQqhb_6w-17" target="b8Hnj6LkioQlIQqhb_6w-14">
          <mxGeometry width="160" relative="1" as="geometry">
            <mxPoint x="571" y="382.5" as="sourcePoint" />
            <mxPoint x="680" y="457.5" as="targetPoint" />
          </mxGeometry>
        </mxCell>
        <mxCell id="b8Hnj6LkioQlIQqhb_6w-19" value="Use" style="endArrow=open;endSize=12;dashed=1;html=1;rounded=1;entryX=0;entryY=0.5;entryDx=0;entryDy=0;exitX=0.5;exitY=0.5;exitDx=0;exitDy=0;exitPerimeter=0;" edge="1" parent="1" source="b8Hnj6LkioQlIQqhb_6w-2" target="b8Hnj6LkioQlIQqhb_6w-17">
          <mxGeometry width="160" relative="1" as="geometry">
            <mxPoint x="255" y="450" as="sourcePoint" />
            <mxPoint x="440" y="350" as="targetPoint" />
          </mxGeometry>
        </mxCell>
        <mxCell id="b8Hnj6LkioQlIQqhb_6w-20" value="배송조회" style="ellipse;whiteSpace=wrap;html=1;rounded=1;" vertex="1" parent="1">
          <mxGeometry x="415" y="430" width="140" height="70" as="geometry" />
        </mxCell>
        <mxCell id="b8Hnj6LkioQlIQqhb_6w-21" value="&amp;lt;&amp;lt;Include&amp;gt;&amp;gt;" style="endArrow=open;endSize=12;dashed=1;html=1;rounded=1;entryX=0;entryY=0.5;entryDx=0;entryDy=0;exitX=1;exitY=0.5;exitDx=0;exitDy=0;" edge="1" parent="1" source="b8Hnj6LkioQlIQqhb_6w-20" target="b8Hnj6LkioQlIQqhb_6w-14">
          <mxGeometry width="160" relative="1" as="geometry">
            <mxPoint x="570" y="499.79999999999995" as="sourcePoint" />
            <mxPoint x="680" y="499.79999999999995" as="targetPoint" />
          </mxGeometry>
        </mxCell>
        <mxCell id="b8Hnj6LkioQlIQqhb_6w-22" value="마이페이지" style="ellipse;whiteSpace=wrap;html=1;rounded=1;" vertex="1" parent="1">
          <mxGeometry x="420" y="510" width="140" height="70" as="geometry" />
        </mxCell>
        <mxCell id="b8Hnj6LkioQlIQqhb_6w-23" value="&amp;lt;&amp;lt;Include&amp;gt;&amp;gt;" style="endArrow=open;endSize=12;dashed=1;html=1;rounded=1;entryX=0.008;entryY=0.529;entryDx=0;entryDy=0;exitX=0.996;exitY=0.533;exitDx=0;exitDy=0;entryPerimeter=0;exitPerimeter=0;" edge="1" parent="1" source="b8Hnj6LkioQlIQqhb_6w-22" target="b8Hnj6LkioQlIQqhb_6w-14">
          <mxGeometry width="160" relative="1" as="geometry">
            <mxPoint x="570" y="575" as="sourcePoint" />
            <mxPoint x="680" y="495" as="targetPoint" />
          </mxGeometry>
        </mxCell>
        <mxCell id="b8Hnj6LkioQlIQqhb_6w-24" value="Use" style="endArrow=open;endSize=12;dashed=1;html=1;rounded=1;entryX=0;entryY=0.5;entryDx=0;entryDy=0;exitX=0.464;exitY=0.503;exitDx=0;exitDy=0;exitPerimeter=0;" edge="1" parent="1" source="b8Hnj6LkioQlIQqhb_6w-2" target="b8Hnj6LkioQlIQqhb_6w-20">
          <mxGeometry width="160" relative="1" as="geometry">
            <mxPoint x="215" y="540" as="sourcePoint" />
            <mxPoint x="440" y="430" as="targetPoint" />
          </mxGeometry>
        </mxCell>
        <mxCell id="b8Hnj6LkioQlIQqhb_6w-25" value="Use" style="endArrow=open;endSize=12;dashed=1;html=1;rounded=1;entryX=0;entryY=0.429;entryDx=0;entryDy=0;exitX=0.5;exitY=0.5;exitDx=0;exitDy=0;exitPerimeter=0;entryPerimeter=0;" edge="1" parent="1" source="b8Hnj6LkioQlIQqhb_6w-2" target="b8Hnj6LkioQlIQqhb_6w-22">
          <mxGeometry width="160" relative="1" as="geometry">
            <mxPoint x="213" y="540" as="sourcePoint" />
            <mxPoint x="440" y="510" as="targetPoint" />
          </mxGeometry>
        </mxCell>
        <mxCell id="b8Hnj6LkioQlIQqhb_6w-26" value="" style="edgeStyle=orthogonalEdgeStyle;rounded=1;orthogonalLoop=1;jettySize=auto;html=1;" edge="1" parent="1" source="b8Hnj6LkioQlIQqhb_6w-27" target="b8Hnj6LkioQlIQqhb_6w-22">
          <mxGeometry relative="1" as="geometry" />
        </mxCell>
        <mxCell id="b8Hnj6LkioQlIQqhb_6w-27" value="등록" style="ellipse;whiteSpace=wrap;html=1;rounded=1;" vertex="1" parent="1">
          <mxGeometry x="380" y="620" width="50" height="30" as="geometry" />
        </mxCell>
        <mxCell id="b8Hnj6LkioQlIQqhb_6w-28" value="" style="edgeStyle=orthogonalEdgeStyle;rounded=1;orthogonalLoop=1;jettySize=auto;html=1;" edge="1" parent="1" source="b8Hnj6LkioQlIQqhb_6w-29" target="b8Hnj6LkioQlIQqhb_6w-22">
          <mxGeometry relative="1" as="geometry" />
        </mxCell>
        <mxCell id="b8Hnj6LkioQlIQqhb_6w-29" value="조회" style="ellipse;whiteSpace=wrap;html=1;rounded=1;" vertex="1" parent="1">
          <mxGeometry x="430" y="620" width="50" height="30" as="geometry" />
        </mxCell>
        <mxCell id="b8Hnj6LkioQlIQqhb_6w-30" value="" style="edgeStyle=orthogonalEdgeStyle;rounded=1;orthogonalLoop=1;jettySize=auto;html=1;" edge="1" parent="1" source="b8Hnj6LkioQlIQqhb_6w-31" target="b8Hnj6LkioQlIQqhb_6w-22">
          <mxGeometry relative="1" as="geometry" />
        </mxCell>
        <mxCell id="b8Hnj6LkioQlIQqhb_6w-31" value="수정" style="ellipse;whiteSpace=wrap;html=1;rounded=1;" vertex="1" parent="1">
          <mxGeometry x="550" y="620" width="50" height="30" as="geometry" />
        </mxCell>
        <mxCell id="b8Hnj6LkioQlIQqhb_6w-32" value="" style="edgeStyle=orthogonalEdgeStyle;rounded=1;orthogonalLoop=1;jettySize=auto;html=1;" edge="1" parent="1" source="b8Hnj6LkioQlIQqhb_6w-33" target="b8Hnj6LkioQlIQqhb_6w-22">
          <mxGeometry relative="1" as="geometry" />
        </mxCell>
        <mxCell id="b8Hnj6LkioQlIQqhb_6w-33" value="탈퇴" style="ellipse;whiteSpace=wrap;html=1;rounded=1;" vertex="1" parent="1">
          <mxGeometry x="500" y="620" width="50" height="30" as="geometry" />
        </mxCell>
        <mxCell id="b8Hnj6LkioQlIQqhb_6w-34" value="상품상세조회" style="ellipse;whiteSpace=wrap;html=1;rounded=1;" vertex="1" parent="1">
          <mxGeometry x="710" y="760" width="140" height="70" as="geometry" />
        </mxCell>
        <mxCell id="b8Hnj6LkioQlIQqhb_6w-35" value="&amp;lt;&amp;lt;Extends&amp;gt;&amp;gt;" style="endArrow=open;endSize=12;dashed=1;html=1;rounded=1;exitX=-0.009;exitY=0.555;exitDx=0;exitDy=0;exitPerimeter=0;entryX=1;entryY=0.5;entryDx=0;entryDy=0;" edge="1" parent="1" source="b8Hnj6LkioQlIQqhb_6w-34" target="b8Hnj6LkioQlIQqhb_6w-7">
          <mxGeometry width="160" relative="1" as="geometry">
            <mxPoint x="600" y="845" as="sourcePoint" />
            <mxPoint x="835" y="900" as="targetPoint" />
          </mxGeometry>
        </mxCell>
        <mxCell id="b8Hnj6LkioQlIQqhb_6w-36" value="&amp;lt;&amp;lt;Extends&amp;gt;&amp;gt;" style="endArrow=open;endSize=12;dashed=1;html=1;rounded=1;exitX=0;exitY=0;exitDx=0;exitDy=0;entryX=1;entryY=0.5;entryDx=0;entryDy=0;" edge="1" parent="1" source="b8Hnj6LkioQlIQqhb_6w-34" target="b8Hnj6LkioQlIQqhb_6w-10">
          <mxGeometry x="0.0081" width="160" relative="1" as="geometry">
            <mxPoint x="659" y="745" as="sourcePoint" />
            <mxPoint x="590" y="751" as="targetPoint" />
            <mxPoint as="offset" />
          </mxGeometry>
        </mxCell>
        <mxCell id="b8Hnj6LkioQlIQqhb_6w-37" value="" style="edgeStyle=orthogonalEdgeStyle;rounded=1;orthogonalLoop=1;jettySize=auto;html=1;" edge="1" parent="1" source="b8Hnj6LkioQlIQqhb_6w-38" target="b8Hnj6LkioQlIQqhb_6w-17">
          <mxGeometry relative="1" as="geometry" />
        </mxCell>
        <mxCell id="b8Hnj6LkioQlIQqhb_6w-38" value="&lt;font style=&quot;font-size: 10px;&quot;&gt;카드&lt;/font&gt;" style="ellipse;whiteSpace=wrap;html=1;rounded=1;" vertex="1" parent="1">
          <mxGeometry x="390" y="380" width="50" height="30" as="geometry" />
        </mxCell>
        <mxCell id="b8Hnj6LkioQlIQqhb_6w-39" value="" style="edgeStyle=orthogonalEdgeStyle;rounded=1;orthogonalLoop=1;jettySize=auto;html=1;" edge="1" parent="1" source="b8Hnj6LkioQlIQqhb_6w-40" target="b8Hnj6LkioQlIQqhb_6w-17">
          <mxGeometry relative="1" as="geometry" />
        </mxCell>
        <mxCell id="b8Hnj6LkioQlIQqhb_6w-40" value="&lt;font style=&quot;font-size: 10px;&quot;&gt;무통장&lt;/font&gt;" style="ellipse;whiteSpace=wrap;html=1;rounded=1;" vertex="1" parent="1">
          <mxGeometry x="440" y="380" width="50" height="30" as="geometry" />
        </mxCell>
        <mxCell id="b8Hnj6LkioQlIQqhb_6w-41" value="" style="edgeStyle=orthogonalEdgeStyle;rounded=1;orthogonalLoop=1;jettySize=auto;html=1;" edge="1" parent="1" source="b8Hnj6LkioQlIQqhb_6w-42" target="b8Hnj6LkioQlIQqhb_6w-17">
          <mxGeometry relative="1" as="geometry" />
        </mxCell>
        <mxCell id="b8Hnj6LkioQlIQqhb_6w-42" value="&lt;font style=&quot;font-size: 10px;&quot;&gt;포인트&lt;/font&gt;" style="ellipse;whiteSpace=wrap;html=1;rounded=1;" vertex="1" parent="1">
          <mxGeometry x="490" y="380" width="50" height="30" as="geometry" />
        </mxCell>
        <mxCell id="b8Hnj6LkioQlIQqhb_6w-43" value="" style="edgeStyle=orthogonalEdgeStyle;rounded=1;orthogonalLoop=1;jettySize=auto;html=1;" edge="1" parent="1" source="b8Hnj6LkioQlIQqhb_6w-44" target="b8Hnj6LkioQlIQqhb_6w-17">
          <mxGeometry relative="1" as="geometry" />
        </mxCell>
        <mxCell id="b8Hnj6LkioQlIQqhb_6w-44" value="&lt;font style=&quot;font-size: 10px;&quot;&gt;할인쿠폰&lt;/font&gt;" style="ellipse;whiteSpace=wrap;html=1;rounded=1;" vertex="1" parent="1">
          <mxGeometry x="540" y="380" width="50" height="30" as="geometry" />
        </mxCell>
        <mxCell id="b8Hnj6LkioQlIQqhb_6w-45" value="관리자&lt;br&gt;및 판매자" style="shape=umlActor;verticalLabelPosition=bottom;verticalAlign=top;html=1;" vertex="1" parent="1">
          <mxGeometry x="1480" y="497.5" width="60" height="95" as="geometry" />
        </mxCell>
        <mxCell id="b8Hnj6LkioQlIQqhb_6w-46" value="회원 관리" style="ellipse;whiteSpace=wrap;html=1;" vertex="1" parent="1">
          <mxGeometry x="1105" y="865" width="130" height="65" as="geometry" />
        </mxCell>
        <mxCell id="b8Hnj6LkioQlIQqhb_6w-47" value="" style="edgeStyle=orthogonalEdgeStyle;rounded=0;orthogonalLoop=1;jettySize=auto;html=1;" edge="1" parent="1" source="b8Hnj6LkioQlIQqhb_6w-60" target="b8Hnj6LkioQlIQqhb_6w-46">
          <mxGeometry relative="1" as="geometry" />
        </mxCell>
        <mxCell id="b8Hnj6LkioQlIQqhb_6w-48" value="" style="edgeStyle=orthogonalEdgeStyle;rounded=0;orthogonalLoop=1;jettySize=auto;html=1;" edge="1" parent="1" source="b8Hnj6LkioQlIQqhb_6w-49" target="b8Hnj6LkioQlIQqhb_6w-46">
          <mxGeometry relative="1" as="geometry" />
        </mxCell>
        <mxCell id="b8Hnj6LkioQlIQqhb_6w-49" value="승인" style="ellipse;whiteSpace=wrap;html=1;" vertex="1" parent="1">
          <mxGeometry x="1080" y="985" width="60" height="50" as="geometry" />
        </mxCell>
        <mxCell id="b8Hnj6LkioQlIQqhb_6w-50" value="" style="edgeStyle=orthogonalEdgeStyle;rounded=0;orthogonalLoop=1;jettySize=auto;html=1;" edge="1" parent="1" source="b8Hnj6LkioQlIQqhb_6w-60" target="b8Hnj6LkioQlIQqhb_6w-46">
          <mxGeometry relative="1" as="geometry" />
        </mxCell>
        <mxCell id="b8Hnj6LkioQlIQqhb_6w-51" value="" style="edgeStyle=orthogonalEdgeStyle;rounded=0;orthogonalLoop=1;jettySize=auto;html=1;" edge="1" parent="1" source="b8Hnj6LkioQlIQqhb_6w-52" target="b8Hnj6LkioQlIQqhb_6w-46">
          <mxGeometry relative="1" as="geometry" />
        </mxCell>
        <mxCell id="b8Hnj6LkioQlIQqhb_6w-52" value="보류" style="ellipse;whiteSpace=wrap;html=1;" vertex="1" parent="1">
          <mxGeometry x="1200" y="985" width="60" height="50" as="geometry" />
        </mxCell>
        <mxCell id="b8Hnj6LkioQlIQqhb_6w-53" value="상품 관리" style="ellipse;whiteSpace=wrap;html=1;" vertex="1" parent="1">
          <mxGeometry x="1100" y="220" width="140" height="70" as="geometry" />
        </mxCell>
        <mxCell id="b8Hnj6LkioQlIQqhb_6w-54" value="" style="edgeStyle=orthogonalEdgeStyle;rounded=0;orthogonalLoop=1;jettySize=auto;html=1;" edge="1" parent="1" source="b8Hnj6LkioQlIQqhb_6w-55" target="b8Hnj6LkioQlIQqhb_6w-53">
          <mxGeometry relative="1" as="geometry" />
        </mxCell>
        <mxCell id="b8Hnj6LkioQlIQqhb_6w-55" value="상품 등록" style="ellipse;whiteSpace=wrap;html=1;" vertex="1" parent="1">
          <mxGeometry x="1080" y="120" width="60" height="50" as="geometry" />
        </mxCell>
        <mxCell id="b8Hnj6LkioQlIQqhb_6w-56" value="" style="edgeStyle=orthogonalEdgeStyle;rounded=0;orthogonalLoop=1;jettySize=auto;html=1;" edge="1" parent="1" source="b8Hnj6LkioQlIQqhb_6w-57" target="b8Hnj6LkioQlIQqhb_6w-53">
          <mxGeometry relative="1" as="geometry" />
        </mxCell>
        <mxCell id="b8Hnj6LkioQlIQqhb_6w-57" value="상품 삭제" style="ellipse;whiteSpace=wrap;html=1;" vertex="1" parent="1">
          <mxGeometry x="1140" y="120" width="60" height="50" as="geometry" />
        </mxCell>
        <mxCell id="b8Hnj6LkioQlIQqhb_6w-58" value="" style="edgeStyle=orthogonalEdgeStyle;rounded=0;orthogonalLoop=1;jettySize=auto;html=1;" edge="1" parent="1" source="b8Hnj6LkioQlIQqhb_6w-59" target="b8Hnj6LkioQlIQqhb_6w-53">
          <mxGeometry relative="1" as="geometry" />
        </mxCell>
        <mxCell id="b8Hnj6LkioQlIQqhb_6w-59" value="상품 배송" style="ellipse;whiteSpace=wrap;html=1;" vertex="1" parent="1">
          <mxGeometry x="1200" y="120" width="60" height="50" as="geometry" />
        </mxCell>
        <mxCell id="b8Hnj6LkioQlIQqhb_6w-60" value="철회" style="ellipse;whiteSpace=wrap;html=1;" vertex="1" parent="1">
          <mxGeometry x="1140" y="985" width="60" height="50" as="geometry" />
        </mxCell>
        <mxCell id="b8Hnj6LkioQlIQqhb_6w-61" value="관리 및&lt;br&gt;판매" style="ellipse;whiteSpace=wrap;html=1;" vertex="1" parent="1">
          <mxGeometry x="1100" y="510" width="140" height="70" as="geometry" />
        </mxCell>
        <mxCell id="b8Hnj6LkioQlIQqhb_6w-62" value="&amp;lt;&amp;lt;Include&amp;gt;&amp;gt;" style="endArrow=open;endSize=12;dashed=1;html=1;rounded=0;exitX=0.5;exitY=0;exitDx=0;exitDy=0;entryX=0.5;entryY=1;entryDx=0;entryDy=0;" edge="1" parent="1" source="b8Hnj6LkioQlIQqhb_6w-61" target="b8Hnj6LkioQlIQqhb_6w-53">
          <mxGeometry width="160" relative="1" as="geometry">
            <mxPoint x="910" y="375" as="sourcePoint" />
            <mxPoint x="820" y="555" as="targetPoint" />
          </mxGeometry>
        </mxCell>
        <mxCell id="b8Hnj6LkioQlIQqhb_6w-63" value="&amp;lt;&amp;lt;Include&amp;gt;&amp;gt;" style="endArrow=open;endSize=12;dashed=1;html=1;rounded=0;exitX=0;exitY=0.5;exitDx=0;exitDy=0;entryX=1;entryY=0.5;entryDx=0;entryDy=0;" edge="1" parent="1" source="b8Hnj6LkioQlIQqhb_6w-61" target="b8Hnj6LkioQlIQqhb_6w-14">
          <mxGeometry width="160" relative="1" as="geometry">
            <mxPoint x="910" y="375" as="sourcePoint" />
            <mxPoint x="820" y="555" as="targetPoint" />
          </mxGeometry>
        </mxCell>
        <mxCell id="b8Hnj6LkioQlIQqhb_6w-64" value="홈페이지 관리" style="ellipse;whiteSpace=wrap;html=1;" vertex="1" parent="1">
          <mxGeometry x="770" y="522.5" width="140" height="70" as="geometry" />
        </mxCell>
        <mxCell id="b8Hnj6LkioQlIQqhb_6w-65" value="Use" style="endArrow=open;endSize=12;dashed=1;html=1;rounded=1;entryX=1;entryY=0.5;entryDx=0;entryDy=0;exitX=0.5;exitY=0.5;exitDx=0;exitDy=0;exitPerimeter=0;" edge="1" parent="1" source="b8Hnj6LkioQlIQqhb_6w-45" target="b8Hnj6LkioQlIQqhb_6w-61">
          <mxGeometry width="160" relative="1" as="geometry">
            <mxPoint x="1116.5" y="690" as="sourcePoint" />
            <mxPoint x="1343.5" y="630" as="targetPoint" />
          </mxGeometry>
        </mxCell>
        <mxCell id="b8Hnj6LkioQlIQqhb_6w-66" value="&amp;lt;&amp;lt;Include&amp;gt;&amp;gt;" style="endArrow=open;endSize=12;dashed=1;html=1;rounded=0;exitX=0.5;exitY=1;exitDx=0;exitDy=0;entryX=0.5;entryY=0;entryDx=0;entryDy=0;" edge="1" parent="1" source="b8Hnj6LkioQlIQqhb_6w-61" target="b8Hnj6LkioQlIQqhb_6w-46">
          <mxGeometry width="160" relative="1" as="geometry">
            <mxPoint x="1169.41" y="800" as="sourcePoint" />
            <mxPoint x="1169.41" y="580" as="targetPoint" />
          </mxGeometry>
        </mxCell>
        <mxCell id="b8Hnj6LkioQlIQqhb_6w-67" value="&amp;lt;&amp;lt;Include&amp;gt;&amp;gt;" style="endArrow=open;endSize=12;dashed=1;html=1;rounded=0;exitX=0;exitY=0.5;exitDx=0;exitDy=0;entryX=1.012;entryY=0.579;entryDx=0;entryDy=0;entryPerimeter=0;" edge="1" parent="1" source="b8Hnj6LkioQlIQqhb_6w-61" target="b8Hnj6LkioQlIQqhb_6w-64">
          <mxGeometry width="160" relative="1" as="geometry">
            <mxPoint x="1040" y="730" as="sourcePoint" />
            <mxPoint x="1130" y="580" as="targetPoint" />
          </mxGeometry>
        </mxCell>
        <mxCell id="b8Hnj6LkioQlIQqhb_6w-68" value="" style="group" vertex="1" connectable="0" parent="1">
          <mxGeometry x="920" y="710" width="140" height="220" as="geometry" />
        </mxCell>
        <mxCell id="b8Hnj6LkioQlIQqhb_6w-69" value="" style="edgeStyle=orthogonalEdgeStyle;rounded=0;orthogonalLoop=1;jettySize=auto;html=1;" edge="1" parent="b8Hnj6LkioQlIQqhb_6w-68" source="b8Hnj6LkioQlIQqhb_6w-70" target="b8Hnj6LkioQlIQqhb_6w-73">
          <mxGeometry relative="1" as="geometry" />
        </mxCell>
        <mxCell id="b8Hnj6LkioQlIQqhb_6w-70" value="카테고리 등록" style="ellipse;whiteSpace=wrap;html=1;" vertex="1" parent="b8Hnj6LkioQlIQqhb_6w-68">
          <mxGeometry x="20" y="110" width="60" height="50" as="geometry" />
        </mxCell>
        <mxCell id="b8Hnj6LkioQlIQqhb_6w-71" value="" style="edgeStyle=orthogonalEdgeStyle;rounded=0;orthogonalLoop=1;jettySize=auto;html=1;" edge="1" parent="b8Hnj6LkioQlIQqhb_6w-68" source="b8Hnj6LkioQlIQqhb_6w-72" target="b8Hnj6LkioQlIQqhb_6w-73">
          <mxGeometry relative="1" as="geometry" />
        </mxCell>
        <mxCell id="b8Hnj6LkioQlIQqhb_6w-72" value="카테고리 변경" style="ellipse;whiteSpace=wrap;html=1;" vertex="1" parent="b8Hnj6LkioQlIQqhb_6w-68">
          <mxGeometry x="80" y="110" width="60" height="50" as="geometry" />
        </mxCell>
        <mxCell id="b8Hnj6LkioQlIQqhb_6w-73" value="카테고리&lt;br&gt;관리" style="ellipse;whiteSpace=wrap;html=1;" vertex="1" parent="b8Hnj6LkioQlIQqhb_6w-68">
          <mxGeometry x="50" width="120" height="70" as="geometry" />
        </mxCell>
        <mxCell id="b8Hnj6LkioQlIQqhb_6w-74" value="&amp;lt;&amp;lt;Include&amp;gt;&amp;gt;" style="endArrow=open;endSize=12;dashed=1;html=1;rounded=0;entryX=1;entryY=0;entryDx=0;entryDy=0;exitX=0.5;exitY=1;exitDx=0;exitDy=0;" edge="1" parent="1" source="b8Hnj6LkioQlIQqhb_6w-61" target="b8Hnj6LkioQlIQqhb_6w-73">
          <mxGeometry width="160" relative="1" as="geometry">
            <mxPoint x="1120" y="570" as="sourcePoint" />
            <mxPoint x="1079.17" y="420" as="targetPoint" />
          </mxGeometry>
        </mxCell>
        <mxCell id="b8Hnj6LkioQlIQqhb_6w-75" value="" style="edgeStyle=orthogonalEdgeStyle;rounded=0;orthogonalLoop=1;jettySize=auto;html=1;" edge="1" parent="1" source="b8Hnj6LkioQlIQqhb_6w-76" target="b8Hnj6LkioQlIQqhb_6w-73">
          <mxGeometry relative="1" as="geometry" />
        </mxCell>
        <mxCell id="b8Hnj6LkioQlIQqhb_6w-76" value="카테고리 삭제" style="ellipse;whiteSpace=wrap;html=1;" vertex="1" parent="1">
          <mxGeometry x="1060" y="820" width="60" height="50" as="geometry" />
        </mxCell>
      </root>
    </mxGraphModel>
  </diagram>
  <diagram id="lwgjVo38QfqSaPvcQdIP" name="요구사항">
    <mxGraphModel dx="4277" dy="1064" grid="1" gridSize="10" guides="1" tooltips="1" connect="1" arrows="1" fold="1" page="1" pageScale="1" pageWidth="2339" pageHeight="3300" math="0" shadow="0">
      <root>
        <mxCell id="0" />
        <mxCell id="1" parent="0" />
        <mxCell id="EdJa3Wwnc6I_-wVcF-xl-1" value="" style="rounded=0;whiteSpace=wrap;html=1;" vertex="1" parent="1">
          <mxGeometry x="881" y="1340" width="339" height="250" as="geometry" />
        </mxCell>
        <mxCell id="EdJa3Wwnc6I_-wVcF-xl-2" value="회원 Domain" style="text;html=1;align=center;verticalAlign=middle;resizable=0;points=[];autosize=1;strokeColor=none;fillColor=none;" vertex="1" parent="1">
          <mxGeometry x="-9" y="1330" width="90" height="30" as="geometry" />
        </mxCell>
        <mxCell id="EdJa3Wwnc6I_-wVcF-xl-3" value="장바구니에 있는 상품을 주문 처리할 수 있다.&amp;nbsp;" style="text;html=1;align=center;verticalAlign=middle;resizable=0;points=[];autosize=1;strokeColor=none;fillColor=none;" vertex="1" parent="1">
          <mxGeometry x="900" y="1390" width="270" height="30" as="geometry" />
        </mxCell>
        <mxCell id="EdJa3Wwnc6I_-wVcF-xl-4" value="[주문 서비스]" style="text;html=1;align=center;verticalAlign=middle;resizable=0;points=[];autosize=1;strokeColor=none;fillColor=none;" vertex="1" parent="1">
          <mxGeometry x="886" y="1350" width="90" height="30" as="geometry" />
        </mxCell>
        <mxCell id="EdJa3Wwnc6I_-wVcF-xl-5" value="기존 주문 정보를 조회 처리할 수 있다.&amp;nbsp;" style="text;html=1;align=center;verticalAlign=middle;resizable=0;points=[];autosize=1;strokeColor=none;fillColor=none;" vertex="1" parent="1">
          <mxGeometry x="895" y="1450" width="230" height="30" as="geometry" />
        </mxCell>
        <mxCell id="EdJa3Wwnc6I_-wVcF-xl-6" value="주문정보를 수정할수있다" style="text;html=1;align=center;verticalAlign=middle;resizable=0;points=[];autosize=1;strokeColor=none;fillColor=none;" vertex="1" parent="1">
          <mxGeometry x="895" y="1420" width="160" height="30" as="geometry" />
        </mxCell>
        <mxCell id="EdJa3Wwnc6I_-wVcF-xl-7" value="" style="rounded=0;whiteSpace=wrap;html=1;" vertex="1" parent="1">
          <mxGeometry x="882" y="1640" width="339" height="250" as="geometry" />
        </mxCell>
        <mxCell id="EdJa3Wwnc6I_-wVcF-xl-8" value="관리자 Domain" style="text;html=1;align=center;verticalAlign=middle;resizable=0;points=[];autosize=1;strokeColor=none;fillColor=none;" vertex="1" parent="1">
          <mxGeometry x="-9" y="1650" width="100" height="30" as="geometry" />
        </mxCell>
        <mxCell id="EdJa3Wwnc6I_-wVcF-xl-9" value="반품건에 대하여 조회 할 수 있다" style="text;html=1;align=center;verticalAlign=middle;resizable=0;points=[];autosize=1;strokeColor=none;fillColor=none;" vertex="1" parent="1">
          <mxGeometry x="887" y="1690" width="200" height="30" as="geometry" />
        </mxCell>
        <mxCell id="EdJa3Wwnc6I_-wVcF-xl-10" value="[주문 서비스]" style="text;html=1;align=center;verticalAlign=middle;resizable=0;points=[];autosize=1;strokeColor=none;fillColor=none;" vertex="1" parent="1">
          <mxGeometry x="887" y="1650" width="90" height="30" as="geometry" />
        </mxCell>
        <mxCell id="EdJa3Wwnc6I_-wVcF-xl-11" value="기존 주문 정보를 조회 처리할 수 있다.&amp;nbsp;" style="text;html=1;align=center;verticalAlign=middle;resizable=0;points=[];autosize=1;strokeColor=none;fillColor=none;" vertex="1" parent="1">
          <mxGeometry x="895" y="1750" width="230" height="30" as="geometry" />
        </mxCell>
        <mxCell id="EdJa3Wwnc6I_-wVcF-xl-12" value="상품 제고에 따라 주문을 취소 처리할 수 있다." style="text;html=1;align=center;verticalAlign=middle;resizable=0;points=[];autosize=1;strokeColor=none;fillColor=none;" vertex="1" parent="1">
          <mxGeometry x="887" y="1720" width="270" height="30" as="geometry" />
        </mxCell>
        <mxCell id="EdJa3Wwnc6I_-wVcF-xl-13" value="" style="rounded=0;whiteSpace=wrap;html=1;" vertex="1" parent="1">
          <mxGeometry x="502" y="1340" width="325" height="230" as="geometry" />
        </mxCell>
        <mxCell id="EdJa3Wwnc6I_-wVcF-xl-14" value="[인증 서비스]" style="text;html=1;align=center;verticalAlign=middle;resizable=0;points=[];autosize=1;strokeColor=none;fillColor=none;" vertex="1" parent="1">
          <mxGeometry x="497" y="1310" width="90" height="30" as="geometry" />
        </mxCell>
        <mxCell id="EdJa3Wwnc6I_-wVcF-xl-15" value="회원가입 요청시 사용자 입력정보를 받아 저장한다 - C" style="text;html=1;align=center;verticalAlign=middle;resizable=0;points=[];autosize=1;strokeColor=none;fillColor=none;" vertex="1" parent="1">
          <mxGeometry x="491" y="1344" width="310" height="30" as="geometry" />
        </mxCell>
        <mxCell id="EdJa3Wwnc6I_-wVcF-xl-16" value="ID/PW 받아 확인후 로그인 처리를 할 수 있다" style="text;html=1;align=center;verticalAlign=middle;resizable=0;points=[];autosize=1;strokeColor=none;fillColor=none;" vertex="1" parent="1">
          <mxGeometry x="501" y="1374" width="260" height="30" as="geometry" />
        </mxCell>
        <mxCell id="EdJa3Wwnc6I_-wVcF-xl-17" value="로그아웃시 유지되고있는 사용자 정보는 제거된다" style="text;html=1;align=center;verticalAlign=middle;resizable=0;points=[];autosize=1;strokeColor=none;fillColor=none;" vertex="1" parent="1">
          <mxGeometry x="501" y="1404" width="290" height="30" as="geometry" />
        </mxCell>
        <mxCell id="EdJa3Wwnc6I_-wVcF-xl-18" value="로그인 이후에 회원정보 조회가 가능하다 - R" style="text;html=1;align=center;verticalAlign=middle;resizable=0;points=[];autosize=1;strokeColor=none;fillColor=none;" vertex="1" parent="1">
          <mxGeometry x="491" y="1434" width="260" height="30" as="geometry" />
        </mxCell>
        <mxCell id="EdJa3Wwnc6I_-wVcF-xl-19" value="회원탈퇴 요청시 본인 확인후 회원정보 삭제 -&amp;nbsp; D" style="text;html=1;align=center;verticalAlign=middle;resizable=0;points=[];autosize=1;strokeColor=none;fillColor=none;" vertex="1" parent="1">
          <mxGeometry x="491" y="1464" width="280" height="30" as="geometry" />
        </mxCell>
        <mxCell id="EdJa3Wwnc6I_-wVcF-xl-20" value="본인 확인을 위한 이메일인증을 할 수 있다(API)" style="text;html=1;align=center;verticalAlign=middle;resizable=0;points=[];autosize=1;strokeColor=none;fillColor=none;" vertex="1" parent="1">
          <mxGeometry x="511" y="1494" width="270" height="30" as="geometry" />
        </mxCell>
        <mxCell id="EdJa3Wwnc6I_-wVcF-xl-21" value="본인 확인을 위한 휴대폰인증을 할 수 있다(API)" style="text;html=1;align=center;verticalAlign=middle;resizable=0;points=[];autosize=1;strokeColor=none;fillColor=none;" vertex="1" parent="1">
          <mxGeometry x="511" y="1524" width="270" height="30" as="geometry" />
        </mxCell>
        <mxCell id="EdJa3Wwnc6I_-wVcF-xl-22" value="" style="rounded=0;whiteSpace=wrap;html=1;" vertex="1" parent="1">
          <mxGeometry x="141" y="1330" width="339" height="250" as="geometry" />
        </mxCell>
        <mxCell id="EdJa3Wwnc6I_-wVcF-xl-23" value="선택한 제품을 장바구니에 담을수 있다. (INSERT)" style="text;html=1;align=center;verticalAlign=middle;resizable=0;points=[];autosize=1;strokeColor=none;fillColor=none;" vertex="1" parent="1">
          <mxGeometry x="150" y="1380" width="290" height="30" as="geometry" />
        </mxCell>
        <mxCell id="EdJa3Wwnc6I_-wVcF-xl-24" value="[상품 조회&amp;nbsp; 서비스]" style="text;html=1;align=center;verticalAlign=middle;resizable=0;points=[];autosize=1;strokeColor=none;fillColor=none;" vertex="1" parent="1">
          <mxGeometry x="150" y="1344" width="120" height="30" as="geometry" />
        </mxCell>
        <mxCell id="EdJa3Wwnc6I_-wVcF-xl-25" value="상품 상세조회를 할수있다 (SELECT)" style="text;html=1;align=center;verticalAlign=middle;resizable=0;points=[];autosize=1;strokeColor=none;fillColor=none;" vertex="1" parent="1">
          <mxGeometry x="160" y="1410" width="220" height="30" as="geometry" />
        </mxCell>
        <mxCell id="EdJa3Wwnc6I_-wVcF-xl-26" value="" style="rounded=0;whiteSpace=wrap;html=1;" vertex="1" parent="1">
          <mxGeometry x="132" y="1640" width="339" height="250" as="geometry" />
        </mxCell>
        <mxCell id="EdJa3Wwnc6I_-wVcF-xl-27" value="상품을 등록 할수있다(INSERT)" style="text;html=1;align=center;verticalAlign=middle;resizable=0;points=[];autosize=1;strokeColor=none;fillColor=none;" vertex="1" parent="1">
          <mxGeometry x="160" y="1694" width="190" height="30" as="geometry" />
        </mxCell>
        <mxCell id="EdJa3Wwnc6I_-wVcF-xl-28" value="상품을 삭제할수있다(DELETE)" style="text;html=1;align=center;verticalAlign=middle;resizable=0;points=[];autosize=1;strokeColor=none;fillColor=none;" vertex="1" parent="1">
          <mxGeometry x="160" y="1754" width="190" height="30" as="geometry" />
        </mxCell>
        <mxCell id="EdJa3Wwnc6I_-wVcF-xl-29" value="상품 정보를 수정할수있다(UPDATE)" style="text;html=1;align=center;verticalAlign=middle;resizable=0;points=[];autosize=1;strokeColor=none;fillColor=none;" vertex="1" parent="1">
          <mxGeometry x="160" y="1724" width="220" height="30" as="geometry" />
        </mxCell>
        <mxCell id="EdJa3Wwnc6I_-wVcF-xl-30" value="상품 제고를 조회할수 잇다(SELECT)" style="text;html=1;align=center;verticalAlign=middle;resizable=0;points=[];autosize=1;strokeColor=none;fillColor=none;" vertex="1" parent="1">
          <mxGeometry x="156" y="1784" width="220" height="30" as="geometry" />
        </mxCell>
        <mxCell id="EdJa3Wwnc6I_-wVcF-xl-31" value="기존 주문 상품을 반품 처리할 수 있다.&amp;nbsp;" style="text;html=1;align=center;verticalAlign=middle;resizable=0;points=[];autosize=1;strokeColor=none;fillColor=none;" vertex="1" parent="1">
          <mxGeometry x="895" y="1480" width="230" height="30" as="geometry" />
        </mxCell>
        <mxCell id="EdJa3Wwnc6I_-wVcF-xl-32" value="" style="rounded=0;whiteSpace=wrap;html=1;" vertex="1" parent="1">
          <mxGeometry x="501" y="1640" width="319" height="190" as="geometry" />
        </mxCell>
        <mxCell id="EdJa3Wwnc6I_-wVcF-xl-33" value="[인증 서비스]" style="text;html=1;align=center;verticalAlign=middle;resizable=0;points=[];autosize=1;strokeColor=none;fillColor=none;" vertex="1" parent="1">
          <mxGeometry x="515" y="1640" width="90" height="30" as="geometry" />
        </mxCell>
        <mxCell id="EdJa3Wwnc6I_-wVcF-xl-34" value="회원가입 요청시 사용자 입력정보를 받아 저장한다" style="text;html=1;align=center;verticalAlign=middle;resizable=0;points=[];autosize=1;strokeColor=none;fillColor=none;" vertex="1" parent="1">
          <mxGeometry x="515" y="1674" width="290" height="30" as="geometry" />
        </mxCell>
        <mxCell id="EdJa3Wwnc6I_-wVcF-xl-35" value="ID/PW 받아 확인후 로그인 처리를 할 수 있다" style="text;html=1;align=center;verticalAlign=middle;resizable=0;points=[];autosize=1;strokeColor=none;fillColor=none;" vertex="1" parent="1">
          <mxGeometry x="515" y="1704" width="260" height="30" as="geometry" />
        </mxCell>
        <mxCell id="EdJa3Wwnc6I_-wVcF-xl-36" value="로그아웃시 유지되고있는 사용자 정보는 제거된다" style="text;html=1;align=center;verticalAlign=middle;resizable=0;points=[];autosize=1;strokeColor=none;fillColor=none;" vertex="1" parent="1">
          <mxGeometry x="515" y="1734" width="290" height="30" as="geometry" />
        </mxCell>
        <mxCell id="EdJa3Wwnc6I_-wVcF-xl-37" value="로그인 이후에 회원정보 조회가 가능하다" style="text;html=1;align=center;verticalAlign=middle;resizable=0;points=[];autosize=1;strokeColor=none;fillColor=none;" vertex="1" parent="1">
          <mxGeometry x="515" y="1764" width="240" height="30" as="geometry" />
        </mxCell>
        <mxCell id="EdJa3Wwnc6I_-wVcF-xl-38" value="회원탈퇴 요청시 본인 확인후 회원정보 삭제" style="text;html=1;align=center;verticalAlign=middle;resizable=0;points=[];autosize=1;strokeColor=none;fillColor=none;" vertex="1" parent="1">
          <mxGeometry x="515" y="1794" width="260" height="30" as="geometry" />
        </mxCell>
      </root>
    </mxGraphModel>
  </diagram>
  <diagram id="vB5FXqlWKTVT4bBPlo4w" name="ERD">
    <mxGraphModel dx="1647" dy="904" grid="1" gridSize="10" guides="1" tooltips="1" connect="1" arrows="1" fold="1" page="1" pageScale="1" pageWidth="2339" pageHeight="3300" math="0" shadow="0">
      <root>
        <mxCell id="0" />
        <mxCell id="1" parent="0" />
        <mxCell id="24G54Ubj2dVdg_VtalKZ-1" value="회원테이블" style="shape=table;startSize=30;container=1;collapsible=1;childLayout=tableLayout;fixedRows=1;rowLines=0;fontStyle=1;align=center;resizeLast=1;html=1;" vertex="1" parent="1">
          <mxGeometry x="60" y="320" width="180" height="150" as="geometry" />
        </mxCell>
        <mxCell id="24G54Ubj2dVdg_VtalKZ-2" value="" style="shape=tableRow;horizontal=0;startSize=0;swimlaneHead=0;swimlaneBody=0;fillColor=none;collapsible=0;dropTarget=0;points=[[0,0.5],[1,0.5]];portConstraint=eastwest;top=0;left=0;right=0;bottom=1;" vertex="1" parent="24G54Ubj2dVdg_VtalKZ-1">
          <mxGeometry y="30" width="180" height="30" as="geometry" />
        </mxCell>
        <mxCell id="24G54Ubj2dVdg_VtalKZ-3" value="PK" style="shape=partialRectangle;connectable=0;fillColor=none;top=0;left=0;bottom=0;right=0;fontStyle=1;overflow=hidden;whiteSpace=wrap;html=1;" vertex="1" parent="24G54Ubj2dVdg_VtalKZ-2">
          <mxGeometry width="30" height="30" as="geometry">
            <mxRectangle width="30" height="30" as="alternateBounds" />
          </mxGeometry>
        </mxCell>
        <mxCell id="24G54Ubj2dVdg_VtalKZ-4" value="회원ID" style="shape=partialRectangle;connectable=0;fillColor=none;top=0;left=0;bottom=0;right=0;align=left;spacingLeft=6;fontStyle=5;overflow=hidden;whiteSpace=wrap;html=1;" vertex="1" parent="24G54Ubj2dVdg_VtalKZ-2">
          <mxGeometry x="30" width="150" height="30" as="geometry">
            <mxRectangle width="150" height="30" as="alternateBounds" />
          </mxGeometry>
        </mxCell>
        <mxCell id="24G54Ubj2dVdg_VtalKZ-5" value="" style="shape=tableRow;horizontal=0;startSize=0;swimlaneHead=0;swimlaneBody=0;fillColor=none;collapsible=0;dropTarget=0;points=[[0,0.5],[1,0.5]];portConstraint=eastwest;top=0;left=0;right=0;bottom=0;" vertex="1" parent="24G54Ubj2dVdg_VtalKZ-1">
          <mxGeometry y="60" width="180" height="30" as="geometry" />
        </mxCell>
        <mxCell id="24G54Ubj2dVdg_VtalKZ-6" value="" style="shape=partialRectangle;connectable=0;fillColor=none;top=0;left=0;bottom=0;right=0;editable=1;overflow=hidden;whiteSpace=wrap;html=1;" vertex="1" parent="24G54Ubj2dVdg_VtalKZ-5">
          <mxGeometry width="30" height="30" as="geometry">
            <mxRectangle width="30" height="30" as="alternateBounds" />
          </mxGeometry>
        </mxCell>
        <mxCell id="24G54Ubj2dVdg_VtalKZ-7" value="회원PW" style="shape=partialRectangle;connectable=0;fillColor=none;top=0;left=0;bottom=0;right=0;align=left;spacingLeft=6;overflow=hidden;whiteSpace=wrap;html=1;" vertex="1" parent="24G54Ubj2dVdg_VtalKZ-5">
          <mxGeometry x="30" width="150" height="30" as="geometry">
            <mxRectangle width="150" height="30" as="alternateBounds" />
          </mxGeometry>
        </mxCell>
        <mxCell id="24G54Ubj2dVdg_VtalKZ-8" value="" style="shape=tableRow;horizontal=0;startSize=0;swimlaneHead=0;swimlaneBody=0;fillColor=none;collapsible=0;dropTarget=0;points=[[0,0.5],[1,0.5]];portConstraint=eastwest;top=0;left=0;right=0;bottom=0;" vertex="1" parent="24G54Ubj2dVdg_VtalKZ-1">
          <mxGeometry y="90" width="180" height="30" as="geometry" />
        </mxCell>
        <mxCell id="24G54Ubj2dVdg_VtalKZ-9" value="" style="shape=partialRectangle;connectable=0;fillColor=none;top=0;left=0;bottom=0;right=0;editable=1;overflow=hidden;whiteSpace=wrap;html=1;" vertex="1" parent="24G54Ubj2dVdg_VtalKZ-8">
          <mxGeometry width="30" height="30" as="geometry">
            <mxRectangle width="30" height="30" as="alternateBounds" />
          </mxGeometry>
        </mxCell>
        <mxCell id="24G54Ubj2dVdg_VtalKZ-10" value="이름" style="shape=partialRectangle;connectable=0;fillColor=none;top=0;left=0;bottom=0;right=0;align=left;spacingLeft=6;overflow=hidden;whiteSpace=wrap;html=1;" vertex="1" parent="24G54Ubj2dVdg_VtalKZ-8">
          <mxGeometry x="30" width="150" height="30" as="geometry">
            <mxRectangle width="150" height="30" as="alternateBounds" />
          </mxGeometry>
        </mxCell>
        <mxCell id="24G54Ubj2dVdg_VtalKZ-11" value="" style="shape=tableRow;horizontal=0;startSize=0;swimlaneHead=0;swimlaneBody=0;fillColor=none;collapsible=0;dropTarget=0;points=[[0,0.5],[1,0.5]];portConstraint=eastwest;top=0;left=0;right=0;bottom=0;" vertex="1" parent="24G54Ubj2dVdg_VtalKZ-1">
          <mxGeometry y="120" width="180" height="30" as="geometry" />
        </mxCell>
        <mxCell id="24G54Ubj2dVdg_VtalKZ-12" value="FK" style="shape=partialRectangle;connectable=0;fillColor=none;top=0;left=0;bottom=0;right=0;editable=1;overflow=hidden;whiteSpace=wrap;html=1;" vertex="1" parent="24G54Ubj2dVdg_VtalKZ-11">
          <mxGeometry width="30" height="30" as="geometry">
            <mxRectangle width="30" height="30" as="alternateBounds" />
          </mxGeometry>
        </mxCell>
        <mxCell id="24G54Ubj2dVdg_VtalKZ-13" value="주소" style="shape=partialRectangle;connectable=0;fillColor=none;top=0;left=0;bottom=0;right=0;align=left;spacingLeft=6;overflow=hidden;whiteSpace=wrap;html=1;" vertex="1" parent="24G54Ubj2dVdg_VtalKZ-11">
          <mxGeometry x="30" width="150" height="30" as="geometry">
            <mxRectangle width="150" height="30" as="alternateBounds" />
          </mxGeometry>
        </mxCell>
        <mxCell id="24G54Ubj2dVdg_VtalKZ-14" value="주문테이블" style="shape=table;startSize=30;container=1;collapsible=1;childLayout=tableLayout;fixedRows=1;rowLines=0;fontStyle=1;align=center;resizeLast=1;html=1;" vertex="1" parent="1">
          <mxGeometry x="650" y="320" width="180" height="270" as="geometry" />
        </mxCell>
        <mxCell id="24G54Ubj2dVdg_VtalKZ-15" value="" style="shape=tableRow;horizontal=0;startSize=0;swimlaneHead=0;swimlaneBody=0;fillColor=none;collapsible=0;dropTarget=0;points=[[0,0.5],[1,0.5]];portConstraint=eastwest;top=0;left=0;right=0;bottom=1;" vertex="1" parent="24G54Ubj2dVdg_VtalKZ-14">
          <mxGeometry y="30" width="180" height="30" as="geometry" />
        </mxCell>
        <mxCell id="24G54Ubj2dVdg_VtalKZ-16" value="PK" style="shape=partialRectangle;connectable=0;fillColor=none;top=0;left=0;bottom=0;right=0;fontStyle=1;overflow=hidden;whiteSpace=wrap;html=1;" vertex="1" parent="24G54Ubj2dVdg_VtalKZ-15">
          <mxGeometry width="30" height="30" as="geometry">
            <mxRectangle width="30" height="30" as="alternateBounds" />
          </mxGeometry>
        </mxCell>
        <mxCell id="24G54Ubj2dVdg_VtalKZ-17" value="주문ID" style="shape=partialRectangle;connectable=0;fillColor=none;top=0;left=0;bottom=0;right=0;align=left;spacingLeft=6;fontStyle=5;overflow=hidden;whiteSpace=wrap;html=1;" vertex="1" parent="24G54Ubj2dVdg_VtalKZ-15">
          <mxGeometry x="30" width="150" height="30" as="geometry">
            <mxRectangle width="150" height="30" as="alternateBounds" />
          </mxGeometry>
        </mxCell>
        <mxCell id="24G54Ubj2dVdg_VtalKZ-18" value="" style="shape=tableRow;horizontal=0;startSize=0;swimlaneHead=0;swimlaneBody=0;fillColor=none;collapsible=0;dropTarget=0;points=[[0,0.5],[1,0.5]];portConstraint=eastwest;top=0;left=0;right=0;bottom=0;" vertex="1" parent="24G54Ubj2dVdg_VtalKZ-14">
          <mxGeometry y="60" width="180" height="30" as="geometry" />
        </mxCell>
        <mxCell id="24G54Ubj2dVdg_VtalKZ-19" value="FK" style="shape=partialRectangle;connectable=0;fillColor=none;top=0;left=0;bottom=0;right=0;editable=1;overflow=hidden;whiteSpace=wrap;html=1;" vertex="1" parent="24G54Ubj2dVdg_VtalKZ-18">
          <mxGeometry width="30" height="30" as="geometry">
            <mxRectangle width="30" height="30" as="alternateBounds" />
          </mxGeometry>
        </mxCell>
        <mxCell id="24G54Ubj2dVdg_VtalKZ-20" value="회원ID" style="shape=partialRectangle;connectable=0;fillColor=none;top=0;left=0;bottom=0;right=0;align=left;spacingLeft=6;overflow=hidden;whiteSpace=wrap;html=1;" vertex="1" parent="24G54Ubj2dVdg_VtalKZ-18">
          <mxGeometry x="30" width="150" height="30" as="geometry">
            <mxRectangle width="150" height="30" as="alternateBounds" />
          </mxGeometry>
        </mxCell>
        <mxCell id="24G54Ubj2dVdg_VtalKZ-21" value="" style="shape=tableRow;horizontal=0;startSize=0;swimlaneHead=0;swimlaneBody=0;fillColor=none;collapsible=0;dropTarget=0;points=[[0,0.5],[1,0.5]];portConstraint=eastwest;top=0;left=0;right=0;bottom=0;" vertex="1" parent="24G54Ubj2dVdg_VtalKZ-14">
          <mxGeometry y="90" width="180" height="30" as="geometry" />
        </mxCell>
        <mxCell id="24G54Ubj2dVdg_VtalKZ-22" value="FK" style="shape=partialRectangle;connectable=0;fillColor=none;top=0;left=0;bottom=0;right=0;editable=1;overflow=hidden;whiteSpace=wrap;html=1;" vertex="1" parent="24G54Ubj2dVdg_VtalKZ-21">
          <mxGeometry width="30" height="30" as="geometry">
            <mxRectangle width="30" height="30" as="alternateBounds" />
          </mxGeometry>
        </mxCell>
        <mxCell id="24G54Ubj2dVdg_VtalKZ-23" value="상품코드" style="shape=partialRectangle;connectable=0;fillColor=none;top=0;left=0;bottom=0;right=0;align=left;spacingLeft=6;overflow=hidden;whiteSpace=wrap;html=1;" vertex="1" parent="24G54Ubj2dVdg_VtalKZ-21">
          <mxGeometry x="30" width="150" height="30" as="geometry">
            <mxRectangle width="150" height="30" as="alternateBounds" />
          </mxGeometry>
        </mxCell>
        <mxCell id="24G54Ubj2dVdg_VtalKZ-24" value="" style="shape=tableRow;horizontal=0;startSize=0;swimlaneHead=0;swimlaneBody=0;fillColor=none;collapsible=0;dropTarget=0;points=[[0,0.5],[1,0.5]];portConstraint=eastwest;top=0;left=0;right=0;bottom=0;" vertex="1" parent="24G54Ubj2dVdg_VtalKZ-14">
          <mxGeometry y="120" width="180" height="30" as="geometry" />
        </mxCell>
        <mxCell id="24G54Ubj2dVdg_VtalKZ-25" value="" style="shape=partialRectangle;connectable=0;fillColor=none;top=0;left=0;bottom=0;right=0;editable=1;overflow=hidden;whiteSpace=wrap;html=1;" vertex="1" parent="24G54Ubj2dVdg_VtalKZ-24">
          <mxGeometry width="30" height="30" as="geometry">
            <mxRectangle width="30" height="30" as="alternateBounds" />
          </mxGeometry>
        </mxCell>
        <mxCell id="24G54Ubj2dVdg_VtalKZ-26" value="상품명" style="shape=partialRectangle;connectable=0;fillColor=none;top=0;left=0;bottom=0;right=0;align=left;spacingLeft=6;overflow=hidden;whiteSpace=wrap;html=1;" vertex="1" parent="24G54Ubj2dVdg_VtalKZ-24">
          <mxGeometry x="30" width="150" height="30" as="geometry">
            <mxRectangle width="150" height="30" as="alternateBounds" />
          </mxGeometry>
        </mxCell>
        <mxCell id="24G54Ubj2dVdg_VtalKZ-27" value="" style="shape=tableRow;horizontal=0;startSize=0;swimlaneHead=0;swimlaneBody=0;fillColor=none;collapsible=0;dropTarget=0;points=[[0,0.5],[1,0.5]];portConstraint=eastwest;top=0;left=0;right=0;bottom=0;" vertex="1" parent="24G54Ubj2dVdg_VtalKZ-14">
          <mxGeometry y="150" width="180" height="30" as="geometry" />
        </mxCell>
        <mxCell id="24G54Ubj2dVdg_VtalKZ-28" value="" style="shape=partialRectangle;connectable=0;fillColor=none;top=0;left=0;bottom=0;right=0;editable=1;overflow=hidden;whiteSpace=wrap;html=1;" vertex="1" parent="24G54Ubj2dVdg_VtalKZ-27">
          <mxGeometry width="30" height="30" as="geometry">
            <mxRectangle width="30" height="30" as="alternateBounds" />
          </mxGeometry>
        </mxCell>
        <mxCell id="24G54Ubj2dVdg_VtalKZ-29" value="주소" style="shape=partialRectangle;connectable=0;fillColor=none;top=0;left=0;bottom=0;right=0;align=left;spacingLeft=6;overflow=hidden;whiteSpace=wrap;html=1;" vertex="1" parent="24G54Ubj2dVdg_VtalKZ-27">
          <mxGeometry x="30" width="150" height="30" as="geometry">
            <mxRectangle width="150" height="30" as="alternateBounds" />
          </mxGeometry>
        </mxCell>
        <mxCell id="24G54Ubj2dVdg_VtalKZ-30" value="" style="shape=tableRow;horizontal=0;startSize=0;swimlaneHead=0;swimlaneBody=0;fillColor=none;collapsible=0;dropTarget=0;points=[[0,0.5],[1,0.5]];portConstraint=eastwest;top=0;left=0;right=0;bottom=0;" vertex="1" parent="24G54Ubj2dVdg_VtalKZ-14">
          <mxGeometry y="180" width="180" height="30" as="geometry" />
        </mxCell>
        <mxCell id="24G54Ubj2dVdg_VtalKZ-31" value="" style="shape=partialRectangle;connectable=0;fillColor=none;top=0;left=0;bottom=0;right=0;editable=1;overflow=hidden;whiteSpace=wrap;html=1;" vertex="1" parent="24G54Ubj2dVdg_VtalKZ-30">
          <mxGeometry width="30" height="30" as="geometry">
            <mxRectangle width="30" height="30" as="alternateBounds" />
          </mxGeometry>
        </mxCell>
        <mxCell id="24G54Ubj2dVdg_VtalKZ-32" value="주문수량" style="shape=partialRectangle;connectable=0;fillColor=none;top=0;left=0;bottom=0;right=0;align=left;spacingLeft=6;overflow=hidden;whiteSpace=wrap;html=1;" vertex="1" parent="24G54Ubj2dVdg_VtalKZ-30">
          <mxGeometry x="30" width="150" height="30" as="geometry">
            <mxRectangle width="150" height="30" as="alternateBounds" />
          </mxGeometry>
        </mxCell>
        <mxCell id="24G54Ubj2dVdg_VtalKZ-33" value="" style="shape=tableRow;horizontal=0;startSize=0;swimlaneHead=0;swimlaneBody=0;fillColor=none;collapsible=0;dropTarget=0;points=[[0,0.5],[1,0.5]];portConstraint=eastwest;top=0;left=0;right=0;bottom=0;" vertex="1" parent="24G54Ubj2dVdg_VtalKZ-14">
          <mxGeometry y="210" width="180" height="30" as="geometry" />
        </mxCell>
        <mxCell id="24G54Ubj2dVdg_VtalKZ-34" value="" style="shape=partialRectangle;connectable=0;fillColor=none;top=0;left=0;bottom=0;right=0;editable=1;overflow=hidden;whiteSpace=wrap;html=1;" vertex="1" parent="24G54Ubj2dVdg_VtalKZ-33">
          <mxGeometry width="30" height="30" as="geometry">
            <mxRectangle width="30" height="30" as="alternateBounds" />
          </mxGeometry>
        </mxCell>
        <mxCell id="24G54Ubj2dVdg_VtalKZ-35" value="주문날짜" style="shape=partialRectangle;connectable=0;fillColor=none;top=0;left=0;bottom=0;right=0;align=left;spacingLeft=6;overflow=hidden;whiteSpace=wrap;html=1;" vertex="1" parent="24G54Ubj2dVdg_VtalKZ-33">
          <mxGeometry x="30" width="150" height="30" as="geometry">
            <mxRectangle width="150" height="30" as="alternateBounds" />
          </mxGeometry>
        </mxCell>
        <mxCell id="24G54Ubj2dVdg_VtalKZ-36" value="" style="shape=tableRow;horizontal=0;startSize=0;swimlaneHead=0;swimlaneBody=0;fillColor=none;collapsible=0;dropTarget=0;points=[[0,0.5],[1,0.5]];portConstraint=eastwest;top=0;left=0;right=0;bottom=0;" vertex="1" parent="24G54Ubj2dVdg_VtalKZ-14">
          <mxGeometry y="240" width="180" height="30" as="geometry" />
        </mxCell>
        <mxCell id="24G54Ubj2dVdg_VtalKZ-37" value="" style="shape=partialRectangle;connectable=0;fillColor=none;top=0;left=0;bottom=0;right=0;editable=1;overflow=hidden;whiteSpace=wrap;html=1;" vertex="1" parent="24G54Ubj2dVdg_VtalKZ-36">
          <mxGeometry width="30" height="30" as="geometry">
            <mxRectangle width="30" height="30" as="alternateBounds" />
          </mxGeometry>
        </mxCell>
        <mxCell id="24G54Ubj2dVdg_VtalKZ-38" value="가격" style="shape=partialRectangle;connectable=0;fillColor=none;top=0;left=0;bottom=0;right=0;align=left;spacingLeft=6;overflow=hidden;whiteSpace=wrap;html=1;" vertex="1" parent="24G54Ubj2dVdg_VtalKZ-36">
          <mxGeometry x="30" width="150" height="30" as="geometry">
            <mxRectangle width="150" height="30" as="alternateBounds" />
          </mxGeometry>
        </mxCell>
        <mxCell id="24G54Ubj2dVdg_VtalKZ-39" value="" style="edgeStyle=entityRelationEdgeStyle;fontSize=12;html=1;endArrow=ERzeroToMany;endFill=1;rounded=0;exitX=1;exitY=0.5;exitDx=0;exitDy=0;dashed=1;entryX=0.974;entryY=1.173;entryDx=0;entryDy=0;entryPerimeter=0;" edge="1" parent="1" source="24G54Ubj2dVdg_VtalKZ-2" target="24G54Ubj2dVdg_VtalKZ-40">
          <mxGeometry width="100" height="100" relative="1" as="geometry">
            <mxPoint x="690" y="460" as="sourcePoint" />
            <mxPoint x="590" y="365" as="targetPoint" />
          </mxGeometry>
        </mxCell>
        <mxCell id="24G54Ubj2dVdg_VtalKZ-40" value="N" style="text;strokeColor=none;fillColor=none;spacingLeft=4;spacingRight=4;overflow=hidden;rotatable=0;points=[[0,0.5],[1,0.5]];portConstraint=eastwest;fontSize=12;whiteSpace=wrap;html=1;" vertex="1" parent="1">
          <mxGeometry x="630" y="330" width="20" height="30" as="geometry" />
        </mxCell>
        <mxCell id="24G54Ubj2dVdg_VtalKZ-41" value="상품테이블" style="shape=table;startSize=30;container=1;collapsible=1;childLayout=tableLayout;fixedRows=1;rowLines=0;fontStyle=1;align=center;resizeLast=1;html=1;" vertex="1" parent="1">
          <mxGeometry x="990" y="440" width="180" height="120" as="geometry" />
        </mxCell>
        <mxCell id="24G54Ubj2dVdg_VtalKZ-42" value="" style="shape=tableRow;horizontal=0;startSize=0;swimlaneHead=0;swimlaneBody=0;fillColor=none;collapsible=0;dropTarget=0;points=[[0,0.5],[1,0.5]];portConstraint=eastwest;top=0;left=0;right=0;bottom=1;" vertex="1" parent="24G54Ubj2dVdg_VtalKZ-41">
          <mxGeometry y="30" width="180" height="30" as="geometry" />
        </mxCell>
        <mxCell id="24G54Ubj2dVdg_VtalKZ-43" value="PK" style="shape=partialRectangle;connectable=0;fillColor=none;top=0;left=0;bottom=0;right=0;fontStyle=1;overflow=hidden;whiteSpace=wrap;html=1;" vertex="1" parent="24G54Ubj2dVdg_VtalKZ-42">
          <mxGeometry width="30" height="30" as="geometry">
            <mxRectangle width="30" height="30" as="alternateBounds" />
          </mxGeometry>
        </mxCell>
        <mxCell id="24G54Ubj2dVdg_VtalKZ-44" value="상품코드" style="shape=partialRectangle;connectable=0;fillColor=none;top=0;left=0;bottom=0;right=0;align=left;spacingLeft=6;fontStyle=5;overflow=hidden;whiteSpace=wrap;html=1;" vertex="1" parent="24G54Ubj2dVdg_VtalKZ-42">
          <mxGeometry x="30" width="150" height="30" as="geometry">
            <mxRectangle width="150" height="30" as="alternateBounds" />
          </mxGeometry>
        </mxCell>
        <mxCell id="24G54Ubj2dVdg_VtalKZ-45" value="" style="shape=tableRow;horizontal=0;startSize=0;swimlaneHead=0;swimlaneBody=0;fillColor=none;collapsible=0;dropTarget=0;points=[[0,0.5],[1,0.5]];portConstraint=eastwest;top=0;left=0;right=0;bottom=1;" vertex="1" parent="24G54Ubj2dVdg_VtalKZ-41">
          <mxGeometry y="60" width="180" height="30" as="geometry" />
        </mxCell>
        <mxCell id="24G54Ubj2dVdg_VtalKZ-46" value="PK" style="shape=partialRectangle;connectable=0;fillColor=none;top=0;left=0;bottom=0;right=0;fontStyle=1;overflow=hidden;whiteSpace=wrap;html=1;" vertex="1" parent="24G54Ubj2dVdg_VtalKZ-45">
          <mxGeometry width="30" height="30" as="geometry">
            <mxRectangle width="30" height="30" as="alternateBounds" />
          </mxGeometry>
        </mxCell>
        <mxCell id="24G54Ubj2dVdg_VtalKZ-47" value="상품명" style="shape=partialRectangle;connectable=0;fillColor=none;top=0;left=0;bottom=0;right=0;align=left;spacingLeft=6;fontStyle=5;overflow=hidden;whiteSpace=wrap;html=1;" vertex="1" parent="24G54Ubj2dVdg_VtalKZ-45">
          <mxGeometry x="30" width="150" height="30" as="geometry">
            <mxRectangle width="150" height="30" as="alternateBounds" />
          </mxGeometry>
        </mxCell>
        <mxCell id="24G54Ubj2dVdg_VtalKZ-48" value="" style="shape=tableRow;horizontal=0;startSize=0;swimlaneHead=0;swimlaneBody=0;fillColor=none;collapsible=0;dropTarget=0;points=[[0,0.5],[1,0.5]];portConstraint=eastwest;top=0;left=0;right=0;bottom=1;" vertex="1" parent="24G54Ubj2dVdg_VtalKZ-41">
          <mxGeometry y="90" width="180" height="30" as="geometry" />
        </mxCell>
        <mxCell id="24G54Ubj2dVdg_VtalKZ-49" value="" style="shape=partialRectangle;connectable=0;fillColor=none;top=0;left=0;bottom=0;right=0;fontStyle=1;overflow=hidden;whiteSpace=wrap;html=1;" vertex="1" parent="24G54Ubj2dVdg_VtalKZ-48">
          <mxGeometry width="30" height="30" as="geometry">
            <mxRectangle width="30" height="30" as="alternateBounds" />
          </mxGeometry>
        </mxCell>
        <mxCell id="24G54Ubj2dVdg_VtalKZ-50" value="상품제고" style="shape=partialRectangle;connectable=0;fillColor=none;top=0;left=0;bottom=0;right=0;align=left;spacingLeft=6;fontStyle=5;overflow=hidden;whiteSpace=wrap;html=1;" vertex="1" parent="24G54Ubj2dVdg_VtalKZ-48">
          <mxGeometry x="30" width="150" height="30" as="geometry">
            <mxRectangle width="150" height="30" as="alternateBounds" />
          </mxGeometry>
        </mxCell>
        <mxCell id="24G54Ubj2dVdg_VtalKZ-51" value="" style="edgeStyle=entityRelationEdgeStyle;fontSize=12;html=1;endArrow=ERmandOne;startArrow=ERmandOne;rounded=0;exitX=1;exitY=0.5;exitDx=0;exitDy=0;entryX=0;entryY=0.5;entryDx=0;entryDy=0;dashed=1;" edge="1" parent="1" source="24G54Ubj2dVdg_VtalKZ-21" target="24G54Ubj2dVdg_VtalKZ-42">
          <mxGeometry width="100" height="100" relative="1" as="geometry">
            <mxPoint x="640" y="410" as="sourcePoint" />
            <mxPoint x="740" y="310" as="targetPoint" />
          </mxGeometry>
        </mxCell>
        <mxCell id="24G54Ubj2dVdg_VtalKZ-52" value="FK" style="shape=partialRectangle;connectable=0;fillColor=none;top=0;left=0;bottom=0;right=0;editable=1;overflow=hidden;whiteSpace=wrap;html=1;" vertex="1" parent="1">
          <mxGeometry x="640" y="470" width="50" height="30" as="geometry">
            <mxRectangle width="50" height="30" as="alternateBounds" />
          </mxGeometry>
        </mxCell>
        <mxCell id="24G54Ubj2dVdg_VtalKZ-53" value="FK" style="shape=partialRectangle;connectable=0;fillColor=none;top=0;left=0;bottom=0;right=0;editable=1;overflow=hidden;whiteSpace=wrap;html=1;" vertex="1" parent="1">
          <mxGeometry x="650" y="440" width="30" height="30" as="geometry">
            <mxRectangle width="30" height="30" as="alternateBounds" />
          </mxGeometry>
        </mxCell>
      </root>
    </mxGraphModel>
  </diagram>
  <diagram id="6UOPrMKXYQy324pNbWu8" name="MVC2">
    <mxGraphModel dx="4118" dy="-79" grid="1" gridSize="10" guides="1" tooltips="1" connect="1" arrows="1" fold="1" page="1" pageScale="1" pageWidth="3300" pageHeight="2339" math="0" shadow="0">
      <root>
        <mxCell id="0" />
        <mxCell id="1" parent="0" />
        <mxCell id="k_-27ogxe_KHzgcvIPaD-1" value="" style="rounded=0;whiteSpace=wrap;html=1;" parent="1" vertex="1">
          <mxGeometry x="2085" y="2484" width="480" height="2140" as="geometry" />
        </mxCell>
        <mxCell id="k_-27ogxe_KHzgcvIPaD-2" value="" style="rounded=0;whiteSpace=wrap;html=1;" parent="1" vertex="1">
          <mxGeometry x="1615" y="2484" width="460" height="2140" as="geometry" />
        </mxCell>
        <mxCell id="k_-27ogxe_KHzgcvIPaD-3" value="&lt;font color=&quot;#000000&quot;&gt;Controller&lt;/font&gt;" style="shape=umlFrame;whiteSpace=wrap;html=1;fontColor=#FF0000;" parent="1" vertex="1">
          <mxGeometry x="580" y="2489" width="760" height="2130" as="geometry" />
        </mxCell>
        <mxCell id="k_-27ogxe_KHzgcvIPaD-4" value="&lt;font color=&quot;#000000&quot;&gt;VIew&lt;/font&gt;" style="shape=umlFrame;whiteSpace=wrap;html=1;fontColor=#FF0000;" parent="1" vertex="1">
          <mxGeometry x="55" y="2494" width="475" height="2130" as="geometry" />
        </mxCell>
        <mxCell id="k_-27ogxe_KHzgcvIPaD-5" value="" style="rounded=0;whiteSpace=wrap;html=1;" parent="1" vertex="1">
          <mxGeometry x="1010" y="2634" width="290" height="1160" as="geometry" />
        </mxCell>
        <mxCell id="k_-27ogxe_KHzgcvIPaD-6" value="Presentation Layer(프레젠테이션 계층)&lt;br&gt;- 사용자의 요청사항을 받아서 해당 서비스로 연결해주고 처리 결과를 사용자에게 알려주는 영역" style="rounded=0;whiteSpace=wrap;html=1;" parent="1" vertex="1">
          <mxGeometry x="50" y="2394" width="1170" height="50" as="geometry" />
        </mxCell>
        <mxCell id="k_-27ogxe_KHzgcvIPaD-7" value="Controller" style="text;html=1;align=center;verticalAlign=middle;resizable=0;points=[];autosize=1;strokeColor=none;fillColor=none;" parent="1" vertex="1">
          <mxGeometry x="555" y="2454" width="80" height="30" as="geometry" />
        </mxCell>
        <mxCell id="k_-27ogxe_KHzgcvIPaD-8" value="&lt;p style=&quot;margin:0px;margin-top:4px;text-align:center;&quot;&gt;&lt;b&gt;FrontController&lt;/b&gt;&lt;/p&gt;&lt;hr size=&quot;1&quot;&gt;&lt;p style=&quot;margin:0px;margin-left:4px;&quot;&gt;- map&amp;lt;String,Object&amp;gt; : Hashmap()&lt;/p&gt;&lt;hr size=&quot;1&quot;&gt;&lt;p style=&quot;margin:0px;margin-left:4px;&quot;&gt;- init() : void&lt;/p&gt;&lt;p style=&quot;margin:0px;margin-left:4px;&quot;&gt;+ execute(request,serviceno,param) : void&lt;/p&gt;" style="verticalAlign=top;align=left;overflow=fill;fontSize=12;fontFamily=Helvetica;html=1;whiteSpace=wrap;" parent="1" vertex="1">
          <mxGeometry x="672.5" y="3139" width="240" height="201" as="geometry" />
        </mxCell>
        <mxCell id="k_-27ogxe_KHzgcvIPaD-9" value="" style="rounded=0;whiteSpace=wrap;html=1;" parent="1" vertex="1">
          <mxGeometry x="86.25" y="3019" width="415" height="380" as="geometry" />
        </mxCell>
        <mxCell id="k_-27ogxe_KHzgcvIPaD-10" value="TUI" style="text;html=1;align=center;verticalAlign=middle;resizable=0;points=[];autosize=1;strokeColor=none;fillColor=none;" parent="1" vertex="1">
          <mxGeometry x="103.75" y="2979" width="40" height="30" as="geometry" />
        </mxCell>
        <mxCell id="k_-27ogxe_KHzgcvIPaD-15" value="&lt;p style=&quot;margin:0px;margin-top:4px;text-align:center;&quot;&gt;&lt;b&gt;OrderController&lt;/b&gt;&lt;/p&gt;&lt;hr size=&quot;1&quot;&gt;&lt;p style=&quot;margin:0px;margin-left:4px;&quot;&gt;&lt;br&gt;&lt;/p&gt;&lt;hr size=&quot;1&quot;&gt;&lt;p style=&quot;margin:0px;margin-left:4px;&quot;&gt;&lt;/p&gt;+ execute(serviceno, param) : void&lt;br&gt;" style="verticalAlign=top;align=left;overflow=fill;fontSize=12;fontFamily=Helvetica;html=1;whiteSpace=wrap;" parent="1" vertex="1">
          <mxGeometry x="1055" y="3124" width="200" height="130" as="geometry" />
        </mxCell>
        <mxCell id="k_-27ogxe_KHzgcvIPaD-16" value="&lt;p style=&quot;margin:0px;margin-top:4px;text-align:center;&quot;&gt;&lt;b&gt;MemberController&lt;/b&gt;&lt;/p&gt;&lt;hr size=&quot;1&quot;&gt;&lt;p style=&quot;margin:0px;margin-left:4px;&quot;&gt;&lt;br&gt;&lt;/p&gt;&lt;hr size=&quot;1&quot;&gt;&lt;p style=&quot;margin:0px;margin-left:4px;&quot;&gt;+ execute(serviceno, param) : void&lt;/p&gt;&lt;p style=&quot;margin:0px;margin-left:4px;&quot;&gt;&lt;br&gt;&lt;/p&gt;" style="verticalAlign=top;align=left;overflow=fill;fontSize=12;fontFamily=Helvetica;html=1;whiteSpace=wrap;" parent="1" vertex="1">
          <mxGeometry x="1055" y="2665" width="200" height="130" as="geometry" />
        </mxCell>
        <mxCell id="k_-27ogxe_KHzgcvIPaD-17" value="&lt;p style=&quot;margin:0px;margin-top:4px;text-align:center;&quot;&gt;&lt;b&gt;ProductController&lt;/b&gt;&lt;/p&gt;&lt;hr size=&quot;1&quot;&gt;&lt;p style=&quot;margin:0px;margin-left:4px;&quot;&gt;&lt;br&gt;&lt;/p&gt;&lt;hr size=&quot;1&quot;&gt;&lt;p style=&quot;margin:0px;margin-left:4px;&quot;&gt;+ execute(serviceno, param) : void&lt;br&gt;&lt;/p&gt;&lt;p style=&quot;margin:0px;margin-left:4px;&quot;&gt;&lt;br&gt;&lt;/p&gt;" style="verticalAlign=top;align=left;overflow=fill;fontSize=12;fontFamily=Helvetica;html=1;whiteSpace=wrap;" parent="1" vertex="1">
          <mxGeometry x="1055" y="3594" width="200" height="130" as="geometry" />
        </mxCell>
        <mxCell id="k_-27ogxe_KHzgcvIPaD-20" value="" style="endArrow=none;html=1;rounded=0;exitX=1;exitY=0.5;exitDx=0;exitDy=0;entryX=0;entryY=0.5;entryDx=0;entryDy=0;startArrow=diamondThin;startFill=1;" parent="1" source="k_-27ogxe_KHzgcvIPaD-8" target="k_-27ogxe_KHzgcvIPaD-16" edge="1">
          <mxGeometry width="50" height="50" relative="1" as="geometry">
            <mxPoint x="550.5" y="2742" as="sourcePoint" />
            <mxPoint x="672.5" y="2932" as="targetPoint" />
          </mxGeometry>
        </mxCell>
        <mxCell id="k_-27ogxe_KHzgcvIPaD-21" value="" style="endArrow=none;html=1;rounded=0;exitX=1;exitY=0.5;exitDx=0;exitDy=0;entryX=0;entryY=0.5;entryDx=0;entryDy=0;endFill=0;startArrow=diamondThin;startFill=1;" parent="1" source="k_-27ogxe_KHzgcvIPaD-8" target="k_-27ogxe_KHzgcvIPaD-15" edge="1">
          <mxGeometry width="50" height="50" relative="1" as="geometry">
            <mxPoint x="832.5" y="2939" as="sourcePoint" />
            <mxPoint x="1072.5" y="2699" as="targetPoint" />
          </mxGeometry>
        </mxCell>
        <mxCell id="k_-27ogxe_KHzgcvIPaD-22" value="" style="endArrow=none;html=1;rounded=0;exitX=1;exitY=0.5;exitDx=0;exitDy=0;entryX=0;entryY=0.5;entryDx=0;entryDy=0;startArrow=diamondThin;startFill=1;" parent="1" source="k_-27ogxe_KHzgcvIPaD-8" target="k_-27ogxe_KHzgcvIPaD-17" edge="1">
          <mxGeometry width="50" height="50" relative="1" as="geometry">
            <mxPoint x="832.5" y="2939" as="sourcePoint" />
            <mxPoint x="1072.5" y="2929" as="targetPoint" />
          </mxGeometry>
        </mxCell>
        <mxCell id="k_-27ogxe_KHzgcvIPaD-23" value="사용자의 모든 요청을 받는 컨트롤러" style="text;html=1;align=center;verticalAlign=middle;resizable=0;points=[];autosize=1;strokeColor=none;fillColor=none;" parent="1" vertex="1">
          <mxGeometry x="682.5" y="3110" width="220" height="30" as="geometry" />
        </mxCell>
        <mxCell id="k_-27ogxe_KHzgcvIPaD-24" value="각 서비스와 연결되는 서브 컨트롤러" style="text;html=1;align=center;verticalAlign=middle;resizable=0;points=[];autosize=1;strokeColor=none;fillColor=none;" parent="1" vertex="1">
          <mxGeometry x="1012.5" y="2574" width="220" height="30" as="geometry" />
        </mxCell>
        <mxCell id="k_-27ogxe_KHzgcvIPaD-26" value="&lt;font color=&quot;#000000&quot;&gt;Model&lt;/font&gt;" style="shape=umlFrame;whiteSpace=wrap;html=1;fontColor=#FF0000;" parent="1" vertex="1">
          <mxGeometry x="1655" y="2500" width="890" height="504" as="geometry" />
        </mxCell>
        <mxCell id="k_-27ogxe_KHzgcvIPaD-27" value="" style="endArrow=open;html=1;rounded=0;entryX=0;entryY=0.5;entryDx=0;entryDy=0;endFill=0;startArrow=none;startFill=0;dashed=1;" parent="1" source="k_-27ogxe_KHzgcvIPaD-16" target="k_-27ogxe_KHzgcvIPaD-54" edge="1">
          <mxGeometry width="50" height="50" relative="1" as="geometry">
            <mxPoint x="1530" y="2730" as="sourcePoint" />
            <mxPoint x="1655.0000000000005" y="2559" as="targetPoint" />
          </mxGeometry>
        </mxCell>
        <mxCell id="k_-27ogxe_KHzgcvIPaD-28" value="" style="endArrow=open;html=1;rounded=0;exitX=0.994;exitY=0.395;exitDx=0;exitDy=0;entryX=0;entryY=0.5;entryDx=0;entryDy=0;startArrow=none;startFill=0;endFill=0;dashed=1;exitPerimeter=0;" parent="1" source="k_-27ogxe_KHzgcvIPaD-54" target="k_-27ogxe_KHzgcvIPaD-63" edge="1">
          <mxGeometry width="50" height="50" relative="1" as="geometry">
            <mxPoint x="2034" y="2581" as="sourcePoint" />
            <mxPoint x="2206.845" y="2641.65" as="targetPoint" />
          </mxGeometry>
        </mxCell>
        <mxCell id="k_-27ogxe_KHzgcvIPaD-29" value="&lt;font color=&quot;#000000&quot;&gt;Model&lt;/font&gt;" style="shape=umlFrame;whiteSpace=wrap;html=1;fontColor=#FF0000;" parent="1" vertex="1">
          <mxGeometry x="1645" y="3034" width="890" height="450" as="geometry" />
        </mxCell>
        <mxCell id="k_-27ogxe_KHzgcvIPaD-33" value="" style="endArrow=open;html=1;entryX=0;entryY=0.5;entryDx=0;entryDy=0;rounded=0;startArrow=none;startFill=0;exitX=1.001;exitY=0.425;exitDx=0;exitDy=0;exitPerimeter=0;dashed=1;endFill=0;" parent="1" source="k_-27ogxe_KHzgcvIPaD-36" target="k_-27ogxe_KHzgcvIPaD-65" edge="1">
          <mxGeometry width="50" height="50" relative="1" as="geometry">
            <mxPoint x="1995" y="3156.7499999999995" as="sourcePoint" />
            <mxPoint x="2250.64" y="3165.8300000000004" as="targetPoint" />
          </mxGeometry>
        </mxCell>
        <mxCell id="k_-27ogxe_KHzgcvIPaD-34" value="&lt;font color=&quot;#000000&quot;&gt;Model&lt;/font&gt;" style="shape=umlFrame;whiteSpace=wrap;html=1;fontColor=#FF0000;" parent="1" vertex="1">
          <mxGeometry x="1645" y="3514" width="890" height="530" as="geometry" />
        </mxCell>
        <mxCell id="k_-27ogxe_KHzgcvIPaD-36" value="&lt;p style=&quot;margin:0px;margin-top:4px;text-align:center;&quot;&gt;&lt;b&gt;OrderService&lt;/b&gt;&lt;/p&gt;&lt;hr size=&quot;1&quot;&gt;&lt;p style=&quot;margin:0px;margin-left:4px;&quot;&gt;- memberService : MemberService&lt;/p&gt;&lt;p style=&quot;margin:0px;margin-left:4px;&quot;&gt;- ProdService : ProdService&lt;/p&gt;&lt;p style=&quot;margin:0px;margin-left:4px;&quot;&gt;- dao : OrderDao / AddrDao&lt;/p&gt;&lt;p style=&quot;margin:0px;margin-left:4px;&quot;&gt;- instance() : OrderService&lt;br&gt;&lt;/p&gt;&lt;hr size=&quot;1&quot;&gt;&lt;p style=&quot;margin:0px;margin-left:4px;&quot;&gt;+ reqOrder(String sid, String order_id) : boolean&lt;/p&gt;&lt;p style=&quot;margin:0px;margin-left:4px;&quot;&gt;+ getAllOrder(OrderDto) : List&amp;lt;OrderDto&amp;gt;&lt;/p&gt;&lt;p style=&quot;margin:0px;margin-left:4px;&quot;&gt;+ addOrder(OrderDto,String) : boolean&lt;/p&gt;&lt;p style=&quot;margin:0px;margin-left:4px;&quot;&gt;&lt;span style=&quot;background-color: initial;&quot;&gt;+ updateOrder(OrderDto, String role) : boolean&lt;/span&gt;&lt;br&gt;&lt;/p&gt;&lt;p style=&quot;margin:0px;margin-left:4px;&quot;&gt;+ updateOrder(AddrDto, String role) : boolean&lt;/p&gt;&lt;p style=&quot;margin:0px;margin-left:4px;&quot;&gt;&lt;span style=&quot;background-color: initial;&quot;&gt;+ removeOrder(OrderDto, String role)&amp;nbsp; : boolean&lt;/span&gt;&lt;/p&gt;&lt;p style=&quot;margin:0px;margin-left:4px;&quot;&gt;+ getInstance() : OrderService&lt;span style=&quot;background-color: initial;&quot;&gt;&lt;br&gt;&lt;/span&gt;&lt;/p&gt;" style="verticalAlign=top;align=left;overflow=fill;fontSize=12;fontFamily=Helvetica;html=1;whiteSpace=wrap;" parent="1" vertex="1">
          <mxGeometry x="1700" y="3550" width="330" height="240" as="geometry" />
        </mxCell>
        <mxCell id="k_-27ogxe_KHzgcvIPaD-37" value="" style="endArrow=open;html=1;rounded=0;entryX=0;entryY=0.5;entryDx=0;entryDy=0;exitX=1.002;exitY=0.423;exitDx=0;exitDy=0;endFill=0;startArrow=none;startFill=0;exitPerimeter=0;dashed=1;" parent="1" source="k_-27ogxe_KHzgcvIPaD-36" target="k_-27ogxe_KHzgcvIPaD-67" edge="1">
          <mxGeometry width="50" height="50" relative="1" as="geometry">
            <mxPoint x="2035" y="3617" as="sourcePoint" />
            <mxPoint x="2230.74" y="3638.338" as="targetPoint" />
          </mxGeometry>
        </mxCell>
        <mxCell id="k_-27ogxe_KHzgcvIPaD-38" value="Business Layer" style="rounded=0;whiteSpace=wrap;html=1;" parent="1" vertex="1">
          <mxGeometry x="1700" y="2404" width="250" height="50" as="geometry" />
        </mxCell>
        <mxCell id="k_-27ogxe_KHzgcvIPaD-39" value="Persistance Layer" style="rounded=0;whiteSpace=wrap;html=1;" parent="1" vertex="1">
          <mxGeometry x="2162.5" y="2404" width="320" height="50" as="geometry" />
        </mxCell>
        <mxCell id="k_-27ogxe_KHzgcvIPaD-40" value="" style="endArrow=none;html=1;rounded=0;entryX=0;entryY=0.5;entryDx=0;entryDy=0;entryPerimeter=0;exitX=1;exitY=0.5;exitDx=0;exitDy=0;" parent="1" source="k_-27ogxe_KHzgcvIPaD-63" target="k_-27ogxe_KHzgcvIPaD-72" edge="1">
          <mxGeometry width="50" height="50" relative="1" as="geometry">
            <mxPoint x="2410" y="2571.5" as="sourcePoint" />
            <mxPoint x="2655.0000000000005" y="2557" as="targetPoint" />
          </mxGeometry>
        </mxCell>
        <mxCell id="k_-27ogxe_KHzgcvIPaD-41" value="" style="endArrow=none;html=1;rounded=0;entryX=0;entryY=0;entryDx=0;entryDy=45;entryPerimeter=0;exitX=0.998;exitY=0.543;exitDx=0;exitDy=0;exitPerimeter=0;" parent="1" source="k_-27ogxe_KHzgcvIPaD-65" target="k_-27ogxe_KHzgcvIPaD-73" edge="1">
          <mxGeometry width="50" height="50" relative="1" as="geometry">
            <mxPoint x="2410" y="3171.5" as="sourcePoint" />
            <mxPoint x="2655.0000000000005" y="3179" as="targetPoint" />
          </mxGeometry>
        </mxCell>
        <mxCell id="k_-27ogxe_KHzgcvIPaD-42" value="" style="endArrow=none;html=1;rounded=0;entryX=0;entryY=0.5;entryDx=0;entryDy=0;entryPerimeter=0;exitX=1;exitY=0.5;exitDx=0;exitDy=0;" parent="1" source="k_-27ogxe_KHzgcvIPaD-67" target="k_-27ogxe_KHzgcvIPaD-74" edge="1">
          <mxGeometry width="50" height="50" relative="1" as="geometry">
            <mxPoint x="2445" y="3635.8300000000004" as="sourcePoint" />
            <mxPoint x="2661.8" y="3626.64" as="targetPoint" />
          </mxGeometry>
        </mxCell>
        <mxCell id="k_-27ogxe_KHzgcvIPaD-44" value="" style="endArrow=open;html=1;rounded=0;entryX=-0.002;entryY=0.427;entryDx=0;entryDy=0;exitX=1;exitY=0.5;exitDx=0;exitDy=0;entryPerimeter=0;startArrow=none;startFill=0;dashed=1;endFill=0;" parent="1" source="k_-27ogxe_KHzgcvIPaD-15" target="k_-27ogxe_KHzgcvIPaD-36" edge="1">
          <mxGeometry width="50" height="50" relative="1" as="geometry">
            <mxPoint x="1530" y="3189" as="sourcePoint" />
            <mxPoint x="1665" y="2899" as="targetPoint" />
          </mxGeometry>
        </mxCell>
        <mxCell id="k_-27ogxe_KHzgcvIPaD-45" value="1 입력값검증&lt;br&gt;2 유효성 검증&lt;br&gt;3 서비스 요청&lt;br&gt;4 View로 전달" style="text;html=1;align=left;verticalAlign=middle;resizable=0;points=[];autosize=1;strokeColor=none;fillColor=none;" parent="1" vertex="1">
          <mxGeometry x="1027.5" y="2514" width="100" height="70" as="geometry" />
        </mxCell>
        <mxCell id="k_-27ogxe_KHzgcvIPaD-46" value="Dao - DB CRUD" style="text;html=1;align=center;verticalAlign=middle;resizable=0;points=[];autosize=1;strokeColor=none;fillColor=none;" parent="1" vertex="1">
          <mxGeometry x="2225" y="2504" width="110" height="30" as="geometry" />
        </mxCell>
        <mxCell id="k_-27ogxe_KHzgcvIPaD-49" value="&lt;p style=&quot;margin:0px;margin-top:4px;text-align:center;&quot;&gt;&lt;b&gt;로그인화면 Class&lt;/b&gt;&lt;/p&gt;&lt;hr size=&quot;1&quot;&gt;&lt;p style=&quot;margin:0px;margin-left:4px;&quot;&gt;+ field: Type&lt;/p&gt;&lt;hr size=&quot;1&quot;&gt;&lt;p style=&quot;margin:0px;margin-left:4px;&quot;&gt;+ method(): Type&lt;/p&gt;" style="verticalAlign=top;align=left;overflow=fill;fontSize=12;fontFamily=Helvetica;html=1;whiteSpace=wrap;" parent="1" vertex="1">
          <mxGeometry x="123.75" y="3224" width="155" height="100" as="geometry" />
        </mxCell>
        <mxCell id="k_-27ogxe_KHzgcvIPaD-50" value="&lt;p style=&quot;margin:0px;margin-top:4px;text-align:center;&quot;&gt;&lt;b&gt;메인 화면 Class&lt;/b&gt;&lt;/p&gt;&lt;hr size=&quot;1&quot;&gt;&lt;p style=&quot;margin:0px;margin-left:4px;&quot;&gt;+ field: Type&lt;/p&gt;&lt;hr size=&quot;1&quot;&gt;&lt;p style=&quot;margin:0px;margin-left:4px;&quot;&gt;+ method(): Type&lt;/p&gt;" style="verticalAlign=top;align=left;overflow=fill;fontSize=12;fontFamily=Helvetica;html=1;whiteSpace=wrap;" parent="1" vertex="1">
          <mxGeometry x="323.75" y="3119" width="160" height="130" as="geometry" />
        </mxCell>
        <mxCell id="k_-27ogxe_KHzgcvIPaD-51" value="&lt;p style=&quot;margin:0px;margin-top:4px;text-align:center;&quot;&gt;&lt;b&gt;주문 조회 화면 Class&lt;/b&gt;&lt;/p&gt;&lt;hr size=&quot;1&quot;&gt;&lt;p style=&quot;margin:0px;margin-left:4px;&quot;&gt;+ field: Type&lt;/p&gt;&lt;hr size=&quot;1&quot;&gt;&lt;p style=&quot;margin:0px;margin-left:4px;&quot;&gt;+ method(): Type&lt;/p&gt;" style="verticalAlign=top;align=left;overflow=fill;fontSize=12;fontFamily=Helvetica;html=1;whiteSpace=wrap;" parent="1" vertex="1">
          <mxGeometry x="123.75" y="3059" width="155" height="90" as="geometry" />
        </mxCell>
        <mxCell id="k_-27ogxe_KHzgcvIPaD-54" value="&lt;p style=&quot;margin:0px;margin-top:4px;text-align:center;&quot;&gt;&lt;b&gt;Member Service&lt;/b&gt;&lt;/p&gt;&lt;hr size=&quot;1&quot;&gt;&amp;nbsp;- instance() : MemberService&lt;br&gt;&lt;p style=&quot;margin:0px;margin-left:4px;&quot;&gt;- dao : MemberDao&lt;/p&gt;&lt;hr size=&quot;1&quot;&gt;&lt;p style=&quot;text-align: justify; margin: 0px 0px 0px 4px;&quot;&gt;+ memberJoin (MemberDto dto): boolean&lt;/p&gt;&lt;p style=&quot;text-align: justify; margin: 0px 0px 0px 4px;&quot;&gt;+ memberSearch(String role) : List&amp;lt;MemberDto&amp;gt;&lt;/p&gt;&lt;p style=&quot;text-align: justify; margin: 0px 0px 0px 4px;&quot;&gt;+ memberSearch(String id, String sid) : MemberDto&lt;/p&gt;&lt;p style=&quot;text-align: justify; margin: 0px 0px 0px 4px;&quot;&gt;+ memberUpdate(MemberDto dto, String sid) : boolean&lt;/p&gt;&lt;p style=&quot;text-align: justify; margin: 0px 0px 0px 4px;&quot;&gt;+ memberDelete(String id,String sid) : boolean&lt;/p&gt;&lt;p style=&quot;text-align: justify; margin: 0px 0px 0px 4px;&quot;&gt;&lt;br&gt;&lt;/p&gt;&lt;p style=&quot;text-align: justify; margin: 0px 0px 0px 4px;&quot;&gt;+ Login(String id, String pw) : String&lt;/p&gt;&lt;p style=&quot;text-align: justify; margin: 0px 0px 0px 4px;&quot;&gt;+ LogOut(String id,String sid) : boolean&lt;/p&gt;&lt;p style=&quot;text-align: justify; margin: 0px 0px 0px 4px;&quot;&gt;+ getRole(String sid) : String&lt;/p&gt;&lt;p style=&quot;text-align: justify; margin: 0px 0px 0px 4px;&quot;&gt;&lt;br&gt;&lt;/p&gt;&lt;p style=&quot;text-align: justify; margin: 0px 0px 0px 4px;&quot;&gt;+ getInstance() : MemberService&lt;/p&gt;" style="verticalAlign=top;align=left;overflow=fill;fontSize=12;fontFamily=Helvetica;html=1;whiteSpace=wrap;" parent="1" vertex="1">
          <mxGeometry x="1730" y="2520" width="300" height="246" as="geometry" />
        </mxCell>
        <mxCell id="k_-27ogxe_KHzgcvIPaD-55" value="" style="edgeStyle=orthogonalEdgeStyle;rounded=0;orthogonalLoop=1;jettySize=auto;html=1;endArrow=none;endFill=0;startArrow=open;startFill=0;dashed=1;entryX=0.5;entryY=1;entryDx=0;entryDy=0;exitX=0.5;exitY=0;exitDx=0;exitDy=0;" parent="1" source="k_-27ogxe_KHzgcvIPaD-64" target="k_-27ogxe_KHzgcvIPaD-63" edge="1">
          <mxGeometry relative="1" as="geometry">
            <mxPoint x="2307.5" y="2764" as="sourcePoint" />
            <mxPoint x="2307.5" y="2744" as="targetPoint" />
            <Array as="points">
              <mxPoint x="2323" y="2754" />
              <mxPoint x="2323" y="2754" />
            </Array>
          </mxGeometry>
        </mxCell>
        <mxCell id="k_-27ogxe_KHzgcvIPaD-57" value="" style="edgeStyle=orthogonalEdgeStyle;rounded=0;orthogonalLoop=1;jettySize=auto;html=1;endArrow=none;endFill=0;startArrow=open;startFill=0;dashed=1;entryX=0.5;entryY=1;entryDx=0;entryDy=0;exitX=0.5;exitY=0;exitDx=0;exitDy=0;" parent="1" source="k_-27ogxe_KHzgcvIPaD-66" target="k_-27ogxe_KHzgcvIPaD-65" edge="1">
          <mxGeometry relative="1" as="geometry">
            <mxPoint x="2335" y="3364" as="sourcePoint" />
            <mxPoint x="2342.48" y="3224" as="targetPoint" />
          </mxGeometry>
        </mxCell>
        <mxCell id="k_-27ogxe_KHzgcvIPaD-58" value="Use" style="text;html=1;align=center;verticalAlign=middle;resizable=0;points=[];autosize=1;strokeColor=none;fillColor=none;" parent="1" vertex="1">
          <mxGeometry x="2320" y="3270" width="40" height="30" as="geometry" />
        </mxCell>
        <mxCell id="k_-27ogxe_KHzgcvIPaD-59" value="" style="edgeStyle=orthogonalEdgeStyle;rounded=0;orthogonalLoop=1;jettySize=auto;html=1;endArrow=none;endFill=0;startArrow=open;startFill=0;dashed=1;entryX=0.5;entryY=1;entryDx=0;entryDy=0;exitX=0.5;exitY=0.008;exitDx=0;exitDy=0;exitPerimeter=0;" parent="1" source="k_-27ogxe_KHzgcvIPaD-68" target="k_-27ogxe_KHzgcvIPaD-67" edge="1">
          <mxGeometry relative="1" as="geometry">
            <mxPoint x="2322.5" y="3814" as="sourcePoint" />
            <mxPoint x="2322.5" y="3782" as="targetPoint" />
          </mxGeometry>
        </mxCell>
        <mxCell id="k_-27ogxe_KHzgcvIPaD-60" value="Use" style="text;html=1;align=center;verticalAlign=middle;resizable=0;points=[];autosize=1;strokeColor=none;fillColor=none;" parent="1" vertex="1">
          <mxGeometry x="2335" y="3784" width="40" height="30" as="geometry" />
        </mxCell>
        <mxCell id="k_-27ogxe_KHzgcvIPaD-61" value="Use" style="text;html=1;align=center;verticalAlign=middle;resizable=0;points=[];autosize=1;strokeColor=none;fillColor=none;" parent="1" vertex="1">
          <mxGeometry x="1480" y="2690" width="40" height="30" as="geometry" />
        </mxCell>
        <mxCell id="k_-27ogxe_KHzgcvIPaD-63" value="&lt;p style=&quot;margin:0px;margin-top:4px;text-align:center;&quot;&gt;&lt;b&gt;MemberDao&lt;/b&gt;&lt;/p&gt;&lt;hr size=&quot;1&quot;&gt;&lt;p style=&quot;border-color: var(--border-color); margin: 0px 0px 0px 4px;&quot;&gt;- id : String&lt;/p&gt;&lt;p style=&quot;border-color: var(--border-color); margin: 0px 0px 0px 4px;&quot;&gt;- pw : String&lt;/p&gt;&lt;p style=&quot;border-color: var(--border-color); margin: 0px 0px 0px 4px;&quot;&gt;- url : String&lt;/p&gt;&lt;p style=&quot;border-color: var(--border-color); margin: 0px 0px 0px 4px;&quot;&gt;- conn : Connection&lt;/p&gt;&lt;p style=&quot;border-color: var(--border-color); margin: 0px 0px 0px 4px;&quot;&gt;- pstmt : PreparedStatement&lt;/p&gt;&lt;p style=&quot;border-color: var(--border-color); margin: 0px 0px 0px 4px;&quot;&gt;- rs : ResultSet&lt;/p&gt;&lt;p style=&quot;border-color: var(--border-color); margin: 0px 0px 0px 4px;&quot;&gt;- instance : MemberDao&lt;br&gt;&lt;/p&gt;&lt;hr style=&quot;border-color: var(--border-color);&quot; size=&quot;1&quot;&gt;&lt;p style=&quot;border-color: var(--border-color); margin: 0px 0px 0px 4px;&quot;&gt;+ select() : List&amp;lt;MemberDto&amp;gt;&lt;/p&gt;&lt;p style=&quot;border-color: var(--border-color); margin: 0px 0px 0px 4px;&quot;&gt;+ insert(MemberDto dto) : int&lt;/p&gt;&lt;p style=&quot;border-color: var(--border-color); margin: 0px 0px 0px 4px;&quot;&gt;+ update(MemeberDto dto) : int&amp;nbsp;&lt;/p&gt;&lt;p style=&quot;border-color: var(--border-color); margin: 0px 0px 0px 4px;&quot;&gt;+ delete(String id) : int&lt;/p&gt;&lt;p style=&quot;border-color: var(--border-color); margin: 0px 0px 0px 4px;&quot;&gt;+ getInstance() : MemberDao&lt;/p&gt;" style="verticalAlign=top;align=left;overflow=fill;fontSize=12;fontFamily=Helvetica;html=1;whiteSpace=wrap;" parent="1" vertex="1">
          <mxGeometry x="2225" y="2580" width="185" height="224" as="geometry" />
        </mxCell>
        <mxCell id="k_-27ogxe_KHzgcvIPaD-64" value="&lt;p style=&quot;margin:0px;margin-top:4px;text-align:center;&quot;&gt;&lt;b&gt;회원 정보 저장 Class&lt;/b&gt;&lt;/p&gt;&lt;hr size=&quot;1&quot;&gt;&lt;p style=&quot;margin:0px;margin-left:4px;&quot;&gt;id&lt;span style=&quot;white-space: pre;&quot;&gt;&#x9;&lt;/span&gt;: String&lt;/p&gt;&lt;p style=&quot;margin:0px;margin-left:4px;&quot;&gt;pw&lt;span style=&quot;white-space: pre;&quot;&gt;&#x9;&lt;/span&gt;: String&lt;/p&gt;&lt;p style=&quot;margin:0px;margin-left:4px;&quot;&gt;name : String&lt;/p&gt;&lt;p style=&quot;margin:0px;margin-left:4px;&quot;&gt;adr_addr: String&lt;/p&gt;&lt;p style=&quot;margin:0px;margin-left:4px;&quot;&gt;role : String&lt;/p&gt;&lt;hr size=&quot;1&quot;&gt;&lt;p style=&quot;margin:0px;margin-left:4px;&quot;&gt;+ method(): Type&lt;/p&gt;" style="verticalAlign=top;align=left;overflow=fill;fontSize=12;fontFamily=Helvetica;html=1;whiteSpace=wrap;" parent="1" vertex="1">
          <mxGeometry x="2237.5" y="2854" width="160" height="140" as="geometry" />
        </mxCell>
        <mxCell id="k_-27ogxe_KHzgcvIPaD-65" value="&lt;p style=&quot;border-color: var(--border-color); margin: 4px 0px 0px; text-align: center;&quot;&gt;&lt;b style=&quot;border-color: var(--border-color);&quot;&gt;AddrDao&lt;/b&gt;&lt;/p&gt;&lt;hr style=&quot;border-color: var(--border-color);&quot; size=&quot;1&quot;&gt;&lt;p style=&quot;border-color: var(--border-color); margin: 0px 0px 0px 4px;&quot;&gt;- id : String&lt;/p&gt;&lt;p style=&quot;border-color: var(--border-color); margin: 0px 0px 0px 4px;&quot;&gt;- pw : String&lt;/p&gt;&lt;p style=&quot;border-color: var(--border-color); margin: 0px 0px 0px 4px;&quot;&gt;- url : String&lt;/p&gt;&lt;p style=&quot;border-color: var(--border-color); margin: 0px 0px 0px 4px;&quot;&gt;- conn : Connection&lt;/p&gt;&lt;p style=&quot;border-color: var(--border-color); margin: 0px 0px 0px 4px;&quot;&gt;- pstmt : PreparedStatement&lt;/p&gt;&lt;p style=&quot;border-color: var(--border-color); margin: 0px 0px 0px 4px;&quot;&gt;- rs : ResultSet&lt;/p&gt;&lt;p style=&quot;border-color: var(--border-color); margin: 0px 0px 0px 4px;&quot;&gt;- instance : AddrDao&lt;br&gt;&lt;/p&gt;&lt;hr style=&quot;border-color: var(--border-color);&quot; size=&quot;1&quot;&gt;&lt;p style=&quot;border-color: var(--border-color); margin: 0px 0px 0px 4px;&quot;&gt;+ select() : List&amp;lt;&lt;b style=&quot;border-color: var(--border-color); text-align: center;&quot;&gt;AddrDto&lt;/b&gt;&amp;gt;&lt;/p&gt;&lt;p style=&quot;border-color: var(--border-color); margin: 0px 0px 0px 4px;&quot;&gt;+ insert(&lt;b style=&quot;border-color: var(--border-color); text-align: center;&quot;&gt;AddrDto&amp;nbsp;&lt;/b&gt;dto) : int&lt;/p&gt;&lt;p style=&quot;border-color: var(--border-color); margin: 0px 0px 0px 4px;&quot;&gt;+ update(&lt;b style=&quot;border-color: var(--border-color); text-align: center;&quot;&gt;AddrDto&amp;nbsp;&lt;/b&gt;dto) : int&amp;nbsp;&lt;/p&gt;&lt;p style=&quot;border-color: var(--border-color); margin: 0px 0px 0px 4px;&quot;&gt;&lt;span style=&quot;text-align: center; background-color: initial;&quot;&gt;+ delete(&lt;/span&gt;&lt;b style=&quot;text-align: center; background-color: initial;&quot;&gt;String addr&lt;/b&gt;&lt;span style=&quot;text-align: center; background-color: initial;&quot;&gt;) : int&lt;/span&gt;&lt;/p&gt;&lt;p style=&quot;border-color: var(--border-color); margin: 0px 0px 0px 4px;&quot;&gt;+ getInstance() : AddrDao&lt;br&gt;&lt;/p&gt;" style="verticalAlign=top;align=left;overflow=fill;fontSize=12;fontFamily=Helvetica;html=1;whiteSpace=wrap;" parent="1" vertex="1">
          <mxGeometry x="2190" y="3040" width="207.5" height="230" as="geometry" />
        </mxCell>
        <mxCell id="k_-27ogxe_KHzgcvIPaD-66" value="&lt;p style=&quot;margin:0px;margin-top:4px;text-align:center;&quot;&gt;&lt;b&gt;AddrDto&lt;/b&gt;&lt;/p&gt;&lt;hr size=&quot;1&quot;&gt;&lt;p style=&quot;margin:0px;margin-left:4px;&quot;&gt;addr : String&lt;/p&gt;&lt;p style=&quot;margin:0px;margin-left:4px;&quot;&gt;member_id : String&lt;/p&gt;&lt;p style=&quot;margin:0px;margin-left:4px;&quot;&gt;order_id : String&lt;/p&gt;&lt;p style=&quot;margin:0px;margin-left:4px;&quot;&gt;&lt;br&gt;&lt;/p&gt;&lt;hr size=&quot;1&quot;&gt;&lt;p style=&quot;margin:0px;margin-left:4px;&quot;&gt;+ method(): Type&lt;/p&gt;" style="verticalAlign=top;align=left;overflow=fill;fontSize=12;fontFamily=Helvetica;html=1;whiteSpace=wrap;" parent="1" vertex="1">
          <mxGeometry x="2213.75" y="3324" width="160" height="130" as="geometry" />
        </mxCell>
        <mxCell id="k_-27ogxe_KHzgcvIPaD-67" value="&lt;p style=&quot;border-color: var(--border-color); margin: 4px 0px 0px; text-align: center;&quot;&gt;&lt;b style=&quot;border-color: var(--border-color);&quot;&gt;OrderDao&lt;/b&gt;&lt;/p&gt;&lt;hr style=&quot;border-color: var(--border-color);&quot; size=&quot;1&quot;&gt;&lt;p style=&quot;border-color: var(--border-color); margin: 0px 0px 0px 4px;&quot;&gt;- id : String&lt;/p&gt;&lt;p style=&quot;border-color: var(--border-color); margin: 0px 0px 0px 4px;&quot;&gt;- pw : String&lt;/p&gt;&lt;p style=&quot;border-color: var(--border-color); margin: 0px 0px 0px 4px;&quot;&gt;- url : String&lt;/p&gt;&lt;p style=&quot;border-color: var(--border-color); margin: 0px 0px 0px 4px;&quot;&gt;- conn : Connection&lt;/p&gt;&lt;p style=&quot;border-color: var(--border-color); margin: 0px 0px 0px 4px;&quot;&gt;- pstmt : PreparedStatement&lt;/p&gt;&lt;p style=&quot;border-color: var(--border-color); margin: 0px 0px 0px 4px;&quot;&gt;- rs : ResultSet&lt;/p&gt;&lt;p style=&quot;border-color: var(--border-color); margin: 0px 0px 0px 4px;&quot;&gt;- instance : OrderDao&lt;br&gt;&lt;/p&gt;&lt;hr style=&quot;border-color: var(--border-color);&quot; size=&quot;1&quot;&gt;&lt;p style=&quot;border-color: var(--border-color); margin: 0px 0px 0px 4px;&quot;&gt;+ select() : List&amp;lt;&lt;b style=&quot;border-color: var(--border-color); text-align: center;&quot;&gt;OrderDto&lt;/b&gt;&lt;span style=&quot;background-color: initial;&quot;&gt;&amp;gt;&lt;/span&gt;&lt;/p&gt;&lt;p style=&quot;border-color: var(--border-color); margin: 0px 0px 0px 4px;&quot;&gt;+ insert(&lt;b style=&quot;border-color: var(--border-color); text-align: center;&quot;&gt;OrderDto&amp;nbsp;&lt;/b&gt;&lt;span style=&quot;background-color: initial;&quot;&gt;dto) : int&lt;/span&gt;&lt;/p&gt;&lt;p style=&quot;border-color: var(--border-color); margin: 0px 0px 0px 4px;&quot;&gt;+ update(&lt;b style=&quot;border-color: var(--border-color); text-align: center;&quot;&gt;OrderDto&amp;nbsp;&lt;/b&gt;&lt;span style=&quot;background-color: initial;&quot;&gt;dto) : int&amp;nbsp;&lt;/span&gt;&lt;/p&gt;&lt;p style=&quot;border-color: var(--border-color); margin: 0px 0px 0px 4px;&quot;&gt;&lt;span style=&quot;text-align: center; background-color: initial;&quot;&gt;+ delete(String&lt;/span&gt;&lt;b style=&quot;text-align: center; background-color: initial;&quot;&gt;&amp;nbsp;Order_id&lt;/b&gt;&lt;span style=&quot;text-align: center; background-color: initial;&quot;&gt;) : int&lt;/span&gt;&lt;/p&gt;&lt;p style=&quot;border-color: var(--border-color); margin: 0px 0px 0px 4px;&quot;&gt;+ getInstance() : OrderDao&lt;span style=&quot;background-color: initial;&quot;&gt;&lt;br&gt;&lt;/span&gt;&lt;/p&gt;" style="verticalAlign=top;align=left;overflow=fill;fontSize=12;fontFamily=Helvetica;html=1;whiteSpace=wrap;" parent="1" vertex="1">
          <mxGeometry x="2227.5" y="3530" width="180" height="234" as="geometry" />
        </mxCell>
        <mxCell id="k_-27ogxe_KHzgcvIPaD-68" value="&lt;p style=&quot;margin:0px;margin-top:4px;text-align:center;&quot;&gt;&lt;b&gt;OrderDto&lt;/b&gt;&lt;/p&gt;&lt;hr size=&quot;1&quot;&gt;&lt;p style=&quot;margin:0px;margin-left:4px;&quot;&gt;order_id : String&amp;nbsp;&lt;/p&gt;&lt;p style=&quot;margin:0px;margin-left:4px;&quot;&gt;member_id : String&lt;/p&gt;&lt;p style=&quot;margin:0px;margin-left:4px;&quot;&gt;product_code : int&lt;/p&gt;&lt;p style=&quot;margin:0px;margin-left:4px;&quot;&gt;product_name : String&lt;/p&gt;&lt;p style=&quot;margin:0px;margin-left:4px;&quot;&gt;adr_addr : String&lt;/p&gt;&lt;p style=&quot;margin:0px;margin-left:4px;&quot;&gt;odr_amount : int&lt;/p&gt;&lt;p style=&quot;margin:0px;margin-left:4px;&quot;&gt;odr_date : date&lt;/p&gt;&lt;p style=&quot;margin:0px;margin-left:4px;&quot;&gt;price : int&lt;/p&gt;&lt;hr size=&quot;1&quot;&gt;&lt;p style=&quot;margin:0px;margin-left:4px;&quot;&gt;+ method(): Type&lt;/p&gt;" style="verticalAlign=top;align=left;overflow=fill;fontSize=12;fontFamily=Helvetica;html=1;whiteSpace=wrap;" parent="1" vertex="1">
          <mxGeometry x="2237.5" y="3824" width="160" height="180" as="geometry" />
        </mxCell>
        <mxCell id="k_-27ogxe_KHzgcvIPaD-69" value="&lt;font color=&quot;#000000&quot;&gt;Model&lt;/font&gt;" style="shape=umlFrame;whiteSpace=wrap;html=1;fontColor=#FF0000;" parent="1" vertex="1">
          <mxGeometry x="1645" y="4074" width="890" height="520" as="geometry" />
        </mxCell>
        <mxCell id="k_-27ogxe_KHzgcvIPaD-70" value="&lt;p style=&quot;border-color: var(--border-color); margin: 4px 0px 0px; text-align: center;&quot;&gt;&lt;b style=&quot;border-color: var(--border-color);&quot;&gt;ProdDao&lt;/b&gt;&lt;/p&gt;&lt;hr style=&quot;border-color: var(--border-color);&quot; size=&quot;1&quot;&gt;&lt;p style=&quot;border-color: var(--border-color); margin: 0px 0px 0px 4px;&quot;&gt;- id : String&lt;/p&gt;&lt;p style=&quot;border-color: var(--border-color); margin: 0px 0px 0px 4px;&quot;&gt;- pw : String&lt;/p&gt;&lt;p style=&quot;border-color: var(--border-color); margin: 0px 0px 0px 4px;&quot;&gt;- url : String&lt;/p&gt;&lt;p style=&quot;border-color: var(--border-color); margin: 0px 0px 0px 4px;&quot;&gt;- conn : Connection&lt;/p&gt;&lt;p style=&quot;border-color: var(--border-color); margin: 0px 0px 0px 4px;&quot;&gt;- pstmt : PreparedStatement&lt;/p&gt;&lt;p style=&quot;border-color: var(--border-color); margin: 0px 0px 0px 4px;&quot;&gt;- rs : ResultSet&lt;/p&gt;&lt;p style=&quot;border-color: var(--border-color); margin: 0px 0px 0px 4px;&quot;&gt;- instance : ProdDao&lt;br&gt;&lt;/p&gt;&lt;hr style=&quot;border-color: var(--border-color);&quot; size=&quot;1&quot;&gt;&lt;p style=&quot;border-color: var(--border-color); margin: 0px 0px 0px 4px;&quot;&gt;+ select() : List&amp;lt;&lt;b style=&quot;border-color: var(--border-color); text-align: center;&quot;&gt;ProdDto&lt;/b&gt;&amp;gt;&lt;/p&gt;&lt;p style=&quot;border-color: var(--border-color); margin: 0px 0px 0px 4px;&quot;&gt;+ insert(&lt;b style=&quot;border-color: var(--border-color); text-align: center;&quot;&gt;ProdDto&amp;nbsp;&lt;/b&gt;dto) : int&lt;/p&gt;&lt;p style=&quot;border-color: var(--border-color); margin: 0px 0px 0px 4px;&quot;&gt;+ update(&lt;b style=&quot;border-color: var(--border-color); text-align: center;&quot;&gt;ProdDto&amp;nbsp;&lt;/b&gt;dto) : int&amp;nbsp;&lt;/p&gt;&lt;p style=&quot;border-color: var(--border-color); margin: 0px 0px 0px 4px;&quot;&gt;&lt;span style=&quot;text-align: center; background-color: initial;&quot;&gt;+ delete(int&amp;nbsp;&lt;/span&gt;&lt;b style=&quot;text-align: center; background-color: initial;&quot;&gt;Product_code&lt;/b&gt;&lt;span style=&quot;text-align: center; background-color: initial;&quot;&gt;) : int&lt;/span&gt;&lt;/p&gt;" style="verticalAlign=top;align=left;overflow=fill;fontSize=12;fontFamily=Helvetica;html=1;whiteSpace=wrap;" parent="1" vertex="1">
          <mxGeometry x="2237.5" y="4090" width="192.5" height="220" as="geometry" />
        </mxCell>
        <mxCell id="k_-27ogxe_KHzgcvIPaD-71" value="&lt;p style=&quot;margin:0px;margin-top:4px;text-align:center;&quot;&gt;&lt;b&gt;ProdDto&lt;/b&gt;&lt;/p&gt;&lt;hr size=&quot;1&quot;&gt;&lt;p style=&quot;margin:0px;margin-left:4px;&quot;&gt;product_code : int&lt;/p&gt;&lt;p style=&quot;margin:0px;margin-left:4px;&quot;&gt;product_name : String&lt;/p&gt;&lt;p style=&quot;margin:0px;margin-left:4px;&quot;&gt;amount : int&lt;/p&gt;&lt;hr size=&quot;1&quot;&gt;&lt;p style=&quot;margin:0px;margin-left:4px;&quot;&gt;+ method(): Type&lt;/p&gt;" style="verticalAlign=top;align=left;overflow=fill;fontSize=12;fontFamily=Helvetica;html=1;whiteSpace=wrap;" parent="1" vertex="1">
          <mxGeometry x="2242.5" y="4414" width="160" height="122" as="geometry" />
        </mxCell>
        <mxCell id="k_-27ogxe_KHzgcvIPaD-72" value="회원&lt;br&gt;테이블" style="shape=cylinder3;whiteSpace=wrap;html=1;boundedLbl=1;backgroundOutline=1;size=15;" parent="1" vertex="1">
          <mxGeometry x="2645" y="2669" width="50" height="70" as="geometry" />
        </mxCell>
        <mxCell id="k_-27ogxe_KHzgcvIPaD-73" value="주소&amp;nbsp;&lt;br&gt;테이블" style="shape=cylinder3;whiteSpace=wrap;html=1;boundedLbl=1;backgroundOutline=1;size=15;" parent="1" vertex="1">
          <mxGeometry x="2655" y="3119" width="50" height="70" as="geometry" />
        </mxCell>
        <mxCell id="k_-27ogxe_KHzgcvIPaD-74" value="주문&amp;nbsp;&lt;br&gt;테이블" style="shape=cylinder3;whiteSpace=wrap;html=1;boundedLbl=1;backgroundOutline=1;size=15;" parent="1" vertex="1">
          <mxGeometry x="2635" y="3624" width="50" height="70" as="geometry" />
        </mxCell>
        <mxCell id="k_-27ogxe_KHzgcvIPaD-75" value="상품&lt;br&gt;테이블" style="shape=cylinder3;whiteSpace=wrap;html=1;boundedLbl=1;backgroundOutline=1;size=15;" parent="1" vertex="1">
          <mxGeometry x="2615" y="4224" width="50" height="70" as="geometry" />
        </mxCell>
        <mxCell id="k_-27ogxe_KHzgcvIPaD-76" value="" style="endArrow=none;html=1;rounded=0;entryX=0;entryY=0.5;entryDx=0;entryDy=0;entryPerimeter=0;exitX=1;exitY=0.5;exitDx=0;exitDy=0;" parent="1" source="k_-27ogxe_KHzgcvIPaD-70" target="k_-27ogxe_KHzgcvIPaD-75" edge="1">
          <mxGeometry width="50" height="50" relative="1" as="geometry">
            <mxPoint x="2405.2" y="4277.360000000001" as="sourcePoint" />
            <mxPoint x="2655" y="4274" as="targetPoint" />
          </mxGeometry>
        </mxCell>
        <mxCell id="lyUBdS8soQ2H2KUs2Rtp-2" value="&lt;p style=&quot;margin:0px;margin-top:4px;text-align:center;&quot;&gt;&lt;b&gt;ProdService&lt;/b&gt;&lt;/p&gt;&lt;hr size=&quot;1&quot;&gt;&lt;p style=&quot;margin:0px;margin-left:4px;&quot;&gt;&lt;span style=&quot;background-color: initial;&quot;&gt;- memberService : MemberService&lt;/span&gt;&lt;/p&gt;&lt;p style=&quot;margin:0px;margin-left:4px;&quot;&gt;&lt;span style=&quot;background-color: initial;&quot;&gt;- dao : prodDao&lt;/span&gt;&lt;br&gt;&lt;/p&gt;&lt;p style=&quot;margin:0px;margin-left:4px;&quot;&gt;- instance() : ProdService&lt;span style=&quot;background-color: initial;&quot;&gt;&lt;br&gt;&lt;/span&gt;&lt;/p&gt;&lt;hr size=&quot;1&quot;&gt;&lt;p style=&quot;margin:0px;margin-left:4px;&quot;&gt;+ reqProd(String sid, int product_code) : boolean&lt;/p&gt;&lt;p style=&quot;margin:0px;margin-left:4px;&quot;&gt;+addProd(String sid, int product_code, String product_name)&lt;/p&gt;&lt;p style=&quot;margin:0px;margin-left:4px;&quot;&gt;: boolean&lt;/p&gt;&lt;p style=&quot;margin:0px;margin-left:4px;&quot;&gt;+updateProd(String sid, int prodcuct_code) : boolean&lt;/p&gt;&lt;p style=&quot;margin:0px;margin-left:4px;&quot;&gt;+removeProd(String sid, int product_code) : boolean&lt;/p&gt;&lt;p style=&quot;margin:0px;margin-left:4px;&quot;&gt;+ getInstance() : ProdService&lt;br&gt;&lt;/p&gt;&lt;p style=&quot;margin:0px;margin-left:4px;&quot;&gt;&lt;br&gt;&lt;/p&gt;" style="verticalAlign=top;align=left;overflow=fill;fontSize=12;fontFamily=Helvetica;html=1;whiteSpace=wrap;" parent="1" vertex="1">
          <mxGeometry x="1690" y="4140" width="350" height="199" as="geometry" />
        </mxCell>
        <mxCell id="lyUBdS8soQ2H2KUs2Rtp-3" value="" style="endArrow=none;html=1;rounded=0;exitX=1;exitY=0.5;exitDx=0;exitDy=0;entryX=0;entryY=0.5;entryDx=0;entryDy=0;" parent="1" source="k_-27ogxe_KHzgcvIPaD-49" target="k_-27ogxe_KHzgcvIPaD-50" edge="1">
          <mxGeometry width="50" height="50" relative="1" as="geometry">
            <mxPoint x="278.75" y="3299" as="sourcePoint" />
            <mxPoint x="418.75" y="3434" as="targetPoint" />
          </mxGeometry>
        </mxCell>
        <mxCell id="lyUBdS8soQ2H2KUs2Rtp-4" value="" style="endArrow=none;html=1;rounded=0;exitX=0;exitY=0.5;exitDx=0;exitDy=0;entryX=1;entryY=0.5;entryDx=0;entryDy=0;" parent="1" source="k_-27ogxe_KHzgcvIPaD-50" target="k_-27ogxe_KHzgcvIPaD-51" edge="1">
          <mxGeometry width="50" height="50" relative="1" as="geometry">
            <mxPoint x="83.75" y="3204" as="sourcePoint" />
            <mxPoint x="208.75" y="3169" as="targetPoint" />
          </mxGeometry>
        </mxCell>
        <mxCell id="lyUBdS8soQ2H2KUs2Rtp-6" value="" style="endArrow=none;html=1;rounded=0;exitX=1;exitY=0.5;exitDx=0;exitDy=0;entryX=0;entryY=0.5;entryDx=0;entryDy=0;endFill=0;startArrow=diamondThin;startFill=1;" parent="1" source="k_-27ogxe_KHzgcvIPaD-50" target="k_-27ogxe_KHzgcvIPaD-8" edge="1">
          <mxGeometry width="50" height="50" relative="1" as="geometry">
            <mxPoint x="470" y="3184" as="sourcePoint" />
            <mxPoint x="610" y="3344" as="targetPoint" />
          </mxGeometry>
        </mxCell>
        <mxCell id="vK9EBbwtU6yBh1xnH1a1-2" value="" style="endArrow=open;html=1;rounded=0;entryX=0.5;entryY=1;entryDx=0;entryDy=0;endFill=0;dashed=1;exitX=0.5;exitY=0;exitDx=0;exitDy=0;" parent="1" source="k_-27ogxe_KHzgcvIPaD-36" target="k_-27ogxe_KHzgcvIPaD-54" edge="1">
          <mxGeometry width="50" height="50" relative="1" as="geometry">
            <mxPoint x="1365" y="3019" as="sourcePoint" />
            <mxPoint x="1825" y="3019" as="targetPoint" />
          </mxGeometry>
        </mxCell>
        <mxCell id="vK9EBbwtU6yBh1xnH1a1-3" value="" style="endArrow=open;html=1;rounded=0;entryX=0.5;entryY=0;entryDx=0;entryDy=0;endFill=0;dashed=1;exitX=0.5;exitY=1;exitDx=0;exitDy=0;" parent="1" source="k_-27ogxe_KHzgcvIPaD-36" target="lyUBdS8soQ2H2KUs2Rtp-2" edge="1">
          <mxGeometry width="50" height="50" relative="1" as="geometry">
            <mxPoint x="1510" y="3784" as="sourcePoint" />
            <mxPoint x="1510" y="3050" as="targetPoint" />
          </mxGeometry>
        </mxCell>
        <mxCell id="vK9EBbwtU6yBh1xnH1a1-4" value="" style="endArrow=open;html=1;rounded=0;entryX=0;entryY=0.5;entryDx=0;entryDy=0;exitX=0.995;exitY=0.558;exitDx=0;exitDy=0;endFill=0;startArrow=none;startFill=0;exitPerimeter=0;dashed=1;" parent="1" source="lyUBdS8soQ2H2KUs2Rtp-2" target="k_-27ogxe_KHzgcvIPaD-70" edge="1">
          <mxGeometry width="50" height="50" relative="1" as="geometry">
            <mxPoint x="2138" y="4061" as="sourcePoint" />
            <mxPoint x="2335" y="4060" as="targetPoint" />
          </mxGeometry>
        </mxCell>
        <mxCell id="vK9EBbwtU6yBh1xnH1a1-5" value="" style="edgeStyle=orthogonalEdgeStyle;rounded=0;orthogonalLoop=1;jettySize=auto;html=1;endArrow=none;endFill=0;startArrow=open;startFill=0;dashed=1;entryX=0.528;entryY=1.001;entryDx=0;entryDy=0;exitX=0.5;exitY=0;exitDx=0;exitDy=0;entryPerimeter=0;" parent="1" source="k_-27ogxe_KHzgcvIPaD-71" target="k_-27ogxe_KHzgcvIPaD-70" edge="1">
          <mxGeometry relative="1" as="geometry">
            <mxPoint x="2470" y="4004" as="sourcePoint" />
            <mxPoint x="2470" y="3943" as="targetPoint" />
          </mxGeometry>
        </mxCell>
        <mxCell id="vK9EBbwtU6yBh1xnH1a1-6" value="Use" style="text;html=1;align=center;verticalAlign=middle;resizable=0;points=[];autosize=1;strokeColor=none;fillColor=none;" parent="1" vertex="1">
          <mxGeometry x="2330" y="4370" width="40" height="30" as="geometry" />
        </mxCell>
        <mxCell id="vK9EBbwtU6yBh1xnH1a1-7" value="Use" style="text;html=1;align=center;verticalAlign=middle;resizable=0;points=[];autosize=1;strokeColor=none;fillColor=none;" parent="1" vertex="1">
          <mxGeometry x="1870" y="3174" width="40" height="30" as="geometry" />
        </mxCell>
        <mxCell id="vK9EBbwtU6yBh1xnH1a1-8" value="Use" style="text;html=1;align=center;verticalAlign=middle;resizable=0;points=[];autosize=1;strokeColor=none;fillColor=none;" parent="1" vertex="1">
          <mxGeometry x="1880" y="4100" width="40" height="30" as="geometry" />
        </mxCell>
        <mxCell id="vK9EBbwtU6yBh1xnH1a1-9" value="" style="endArrow=open;html=1;rounded=0;entryX=0;entryY=0.5;entryDx=0;entryDy=0;endFill=0;startArrow=none;startFill=0;exitX=1;exitY=0.5;exitDx=0;exitDy=0;dashed=1;" parent="1" source="k_-27ogxe_KHzgcvIPaD-17" target="lyUBdS8soQ2H2KUs2Rtp-2" edge="1">
          <mxGeometry width="50" height="50" relative="1" as="geometry">
            <mxPoint x="1140" y="4060" as="sourcePoint" />
            <mxPoint x="1600" y="4060" as="targetPoint" />
          </mxGeometry>
        </mxCell>
        <mxCell id="vK9EBbwtU6yBh1xnH1a1-11" value="Use" style="text;html=1;align=center;verticalAlign=middle;resizable=0;points=[];autosize=1;strokeColor=none;fillColor=none;" parent="1" vertex="1">
          <mxGeometry x="2100" y="3430" width="40" height="30" as="geometry" />
        </mxCell>
        <mxCell id="vK9EBbwtU6yBh1xnH1a1-12" value="Use" style="text;html=1;align=center;verticalAlign=middle;resizable=0;points=[];autosize=1;strokeColor=none;fillColor=none;" parent="1" vertex="1">
          <mxGeometry x="2100" y="3624" width="40" height="30" as="geometry" />
        </mxCell>
        <mxCell id="vK9EBbwtU6yBh1xnH1a1-13" value="Use" style="text;html=1;align=center;verticalAlign=middle;resizable=0;points=[];autosize=1;strokeColor=none;fillColor=none;" parent="1" vertex="1">
          <mxGeometry x="2110" y="4224" width="40" height="30" as="geometry" />
        </mxCell>
        <mxCell id="vK9EBbwtU6yBh1xnH1a1-14" value="Use" style="text;html=1;align=center;verticalAlign=middle;resizable=0;points=[];autosize=1;strokeColor=none;fillColor=none;" parent="1" vertex="1">
          <mxGeometry x="1480" y="3399" width="40" height="30" as="geometry" />
        </mxCell>
        <mxCell id="vK9EBbwtU6yBh1xnH1a1-15" value="Use" style="text;html=1;align=center;verticalAlign=middle;resizable=0;points=[];autosize=1;strokeColor=none;fillColor=none;" parent="1" vertex="1">
          <mxGeometry x="1470" y="3899" width="40" height="30" as="geometry" />
        </mxCell>
        <mxCell id="Qe3eo6FFN9ylF-7KnSBC-1" value="로그인 서비스&#xa;1 전달 받은 ID를 이용해서 DB로부터 회원정보 가져옴&#xa;2 파라미터로 받은 패스워드와 DB의 패스워드의 일치여부(인증)&#xa;3 인증이 완료되이후 인증서비스 세션저장컬렉션에 세션객체저장&#xa;4 클라이언트에게 전달할 세션쿠키 리턴&#xa;&#xa;&#xa;로그아웃 서비스&#xa;1 파라미터를 받아 해당 User세션이 있는지 확인&#xa;1-1 있다면 해당 User세션 제거&#xa;1-2  있다면 권한 쿠키 제거" style="text;whiteSpace=wrap;" parent="1" vertex="1">
          <mxGeometry x="1655" y="2795" width="380" height="180" as="geometry" />
        </mxCell>
        <mxCell id="Qe3eo6FFN9ylF-7KnSBC-2" value="주문 서비스&#xa;1 세션 정보 요청(+로그인 상태 확인) &#xa;  받은 세션 정보로 Role 확인하기&#xa;  if(Role==Role_Guset) 서비스 이용불가&#xa;2 상품 존재 여부 확인&#xa;3 상품 재고 여부 확인&#xa;4 상품 판매" style="text;whiteSpace=wrap;" parent="1" vertex="1">
          <mxGeometry x="1710" y="3809" width="250" height="120" as="geometry" />
        </mxCell>
        <mxCell id="Qe3eo6FFN9ylF-7KnSBC-3" value="상품 서비스&#xa;1 자체적으로 처리 (Service-&gt;Dao-&gt;DB-&gt;결과받기)" style="text;whiteSpace=wrap;" parent="1" vertex="1">
          <mxGeometry x="1700" y="4350" width="300" height="50" as="geometry" />
        </mxCell>
      </root>
    </mxGraphModel>
  </diagram>
</mxfile>
